<?xml version="1.0" encoding="UTF-8" standalone="no"?>
<!-- Created with Inkscape (http://www.inkscape.org/) -->

<svg
   xmlns:dc="http://purl.org/dc/elements/1.1/"
   xmlns:cc="http://creativecommons.org/ns#"
   xmlns:rdf="http://www.w3.org/1999/02/22-rdf-syntax-ns#"
   xmlns:svg="http://www.w3.org/2000/svg"
   xmlns="http://www.w3.org/2000/svg"
   xmlns:sodipodi="http://sodipodi.sourceforge.net/DTD/sodipodi-0.dtd"
   xmlns:inkscape="http://www.inkscape.org/namespaces/inkscape"
   width="30"
   height="30"
   id="svg2"
   version="1.1"
   inkscape:version="0.48.5 r10040"
   sodipodi:docname="Fog-Day-icon.svg">
  <defs
     id="defs4" />
  <sodipodi:namedview
     id="base"
     pagecolor="#ffffff"
     bordercolor="#666666"
     borderopacity="1.0"
     inkscape:pageopacity="0.40784314"
     inkscape:pageshadow="2"
     inkscape:zoom="18.054793"
     inkscape:cx="11.44092"
     inkscape:cy="12.948179"
     inkscape:document-units="px"
     inkscape:current-layer="layer1"
     showgrid="false"
     inkscape:snap-page="true"
     showguides="true"
     inkscape:guide-bbox="true"
     inkscape:window-width="1607"
     inkscape:window-height="941"
     inkscape:window-x="98"
     inkscape:window-y="11"
     inkscape:window-maximized="0"
     inkscape:snap-from-guide="false">
    <sodipodi:guide
       orientation="0,1"
       position="4.1082803,6"
       id="guide2985" />
    <sodipodi:guide
       orientation="0,1"
       position="-6.4012739,24"
       id="guide2987" />
    <sodipodi:guide
       orientation="1,0"
       position="6,27.277"
       id="guide2989" />
    <sodipodi:guide
       orientation="1,0"
       position="24,24"
       id="guide2991" />
  </sodipodi:namedview>
  <metadata
     id="metadata7">
    <rdf:RDF>
      <cc:Work
         rdf:about="">
        <dc:format>image/svg+xml</dc:format>
        <dc:type
           rdf:resource="http://purl.org/dc/dcmitype/StillImage" />
        <dc:title></dc:title>
      </cc:Work>
    </rdf:RDF>
  </metadata>
  <g
     inkscape:label="Layer 1"
     inkscape:groupmode="layer"
     id="layer1"
     transform="translate(0,-1022.3622)">
    <path
       sodipodi:type="arc"
       style="fill:none;stroke:#000000;stroke-width:1.5;stroke-miterlimit:4;stroke-opacity:1;stroke-dasharray:none"
       id="path3077"
       sodipodi:cx="9.4918947"
       sodipodi:cy="14.900793"
       sodipodi:rx="5.3708587"
       sodipodi:ry="5.3708587"
       d="m 14.862753,14.900793 a 5.3708587,5.3708587 0 1 1 -10.7417169,0 5.3708587,5.3708587 0 1 1 10.7417169,0 z"
       transform="translate(5.5081053,1022.4614)" />
    <path
       style="fill:none;stroke:#000000;stroke-width:1.5;stroke-linecap:round;stroke-linejoin:miter;stroke-miterlimit:4;stroke-opacity:1;stroke-dasharray:none"
       d="m 15,1025.1872 c 0,3.209 0,3.209 0,3.209 l 0,0 0,-0.034 0,0.7093"
       id="path3855"
       inkscape:connector-curvature="0"
       sodipodi:nodetypes="ccccc" />
    <path
       sodipodi:nodetypes="ccccc"
       inkscape:connector-curvature="0"
       id="path3857"
       d="m 15,1046.3622 c 0,3.209 0,3.209 0,3.209 l 0,0 0,-0.034 0,0.7093"
       style="fill:none;stroke:#000000;stroke-width:1.5;stroke-linecap:round;stroke-linejoin:miter;stroke-miterlimit:4;stroke-opacity:1;stroke-dasharray:none" />
    <path
       sodipodi:nodetypes="ccccc"
       inkscape:connector-curvature="0"
       id="path3859"
       d="m 6,1028.3622 c 2.269105,2.2691 2.269105,2.2691 2.269105,2.2691 l 0,0 -0.02404,-0.024 0.50155,0.5016"
       style="fill:none;stroke:#000000;stroke-width:1.5;stroke-linecap:round;stroke-linejoin:miter;stroke-miterlimit:4;stroke-opacity:1;stroke-dasharray:none" />
    <path
       style="fill:none;stroke:#000000;stroke-width:1.5;stroke-linecap:round;stroke-linejoin:miter;stroke-miterlimit:4;stroke-opacity:1;stroke-dasharray:none"
       d="m 21.253385,1043.6155 c 2.269105,2.2691 2.269105,2.2691 2.269105,2.2691 l 0,0 -0.02404,-0.024 0.50155,0.5016"
       id="path3861"
       inkscape:connector-curvature="0"
       sodipodi:nodetypes="ccccc" />
    <path
       style="fill:none;stroke:#000000;stroke-width:1.5;stroke-linecap:round;stroke-linejoin:miter;stroke-miterlimit:4;stroke-opacity:1;stroke-dasharray:none"
       d="m 6,1046.3622 c 2.269105,-2.2691 2.269105,-2.2691 2.269105,-2.2691 l 0,0 -0.02404,0.024 0.50155,-0.5016"
       id="path3863"
       inkscape:connector-curvature="0"
       sodipodi:nodetypes="ccccc" />
    <path
       sodipodi:nodetypes="ccccc"
       inkscape:connector-curvature="0"
       id="path3865"
       d="m 21.253385,1031.1089 c 2.269105,-2.2691 2.269105,-2.2691 2.269105,-2.2691 l 0,0 -0.02404,0.024 L 24,1028.3622"
       style="fill:none;stroke:#000000;stroke-width:1.5;stroke-linecap:round;stroke-linejoin:miter;stroke-miterlimit:4;stroke-opacity:1;stroke-dasharray:none" />
    <path
       sodipodi:nodetypes="ccccc"
       inkscape:connector-curvature="0"
       id="path3867"
       d="m 14.418817,1037.3347 c -3.209,0 -11.627817,0.055 -11.627817,0.055 l 0,0 0.034,0 -0.7093,0"
       style="fill:none;stroke:#000000;stroke-width:1;stroke-linecap:round;stroke-linejoin:miter;stroke-miterlimit:4;stroke-opacity:1;stroke-dasharray:none" />
    <path
       style="fill:none;stroke:#000000;stroke-width:1.5;stroke-linecap:round;stroke-linejoin:miter;stroke-miterlimit:4;stroke-opacity:1;stroke-dasharray:none"
       d="m 27.175,1037.3622 c -3.209,0 -3.209,0 -3.209,0 l 0,0 0.034,0 -0.7093,0"
       id="path3869"
       inkscape:connector-curvature="0"
       sodipodi:nodetypes="ccccc" />
    <path
       style="fill:none;stroke:#000000;stroke-width:1;stroke-linecap:round;stroke-linejoin:miter;stroke-miterlimit:4;stroke-opacity:1;stroke-dasharray:none"
       d="m 15.593817,1035.3352 c -3.209,0 -11.627817,0.055 -11.627817,0.055 l 0,0 0.034,0 -0.7093,0"
       id="path4086"
       inkscape:connector-curvature="0"
       sodipodi:nodetypes="ccccc" />
    <path
       sodipodi:nodetypes="ccccc"
       inkscape:connector-curvature="0"
       id="path4088"
       d="m 17.483043,1039.3352 c -3.209,0 -11.6278169,0.055 -11.6278169,0.055 l 0,0 0.034,0 -0.7093,0"
       style="fill:none;stroke:#000000;stroke-width:1;stroke-linecap:round;stroke-linejoin:miter;stroke-miterlimit:4;stroke-opacity:1;stroke-dasharray:none" />
  </g>
</svg>
