<?xml version="1.0" encoding="UTF-8" standalone="no"?>
<!-- Created with Inkscape (http://www.inkscape.org/) -->

<svg
   xmlns:dc="http://purl.org/dc/elements/1.1/"
   xmlns:cc="http://creativecommons.org/ns#"
   xmlns:rdf="http://www.w3.org/1999/02/22-rdf-syntax-ns#"
   xmlns:svg="http://www.w3.org/2000/svg"
   xmlns="http://www.w3.org/2000/svg"
   version="1.1"
   width="30"
   height="30"
   id="svg2">
  <defs
     id="defs4">
    <linearGradient
       id="linearGradient4543">
      <stop
         id="stop4545"
         style="stop-color:#000000;stop-opacity:1"
         offset="0" />
    </linearGradient>
    <linearGradient
       id="linearGradient4537">
      <stop
         id="stop4539"
         style="stop-color:#000000;stop-opacity:1"
         offset="0" />
    </linearGradient>
  </defs>
  <metadata
     id="metadata7">
    <rdf:RDF>
      <cc:Work
         rdf:about="">
        <dc:format>image/svg+xml</dc:format>
        <dc:type
           rdf:resource="http://purl.org/dc/dcmitype/StillImage" />
        <dc:title></dc:title>
      </cc:Work>
    </rdf:RDF>
  </metadata>
  <g
     transform="translate(0,-1022.3622)"
     id="layer1">
    <path
       d="m 6.75,1028.3622 c -2e-6,3.209 2.03e-4,20.0657 2.03e-4,20.0657 l 0,0 1.4e-5,-0.034 -2.17e-4,0.7093"
       id="path4150"
       style="fill:#000000;fill-opacity:0;stroke:#000000;stroke-width:1;stroke-linecap:round;stroke-linejoin:miter;stroke-miterlimit:4;stroke-opacity:1;stroke-dasharray:none" />
    <g
       transform="translate(10.460809,4.9280178)"
       id="g4154"
       style="fill:#000000;fill-opacity:0">
      <path
         d="m 25.816921,1034.8985 c 0,-3.209 -1.68e-4,-1.6283 -1.68e-4,-1.6283 l 0,0 0,0.034 1.68e-4,-0.7093"
         id="path4156"
         style="fill:#000000;fill-opacity:0;stroke:#000000;stroke-width:0.5;stroke-linecap:round;stroke-linejoin:miter;stroke-miterlimit:4;stroke-opacity:1;stroke-dasharray:none" />
      <path
         d="m 24.665037,1033.7468 c 3.209,0 1.6283,-2e-4 1.6283,-2e-4 l 0,0 -0.034,0 0.7093,2e-4"
         id="path4158"
         style="fill:#000000;fill-opacity:0;stroke:#000000;stroke-width:0.5;stroke-linecap:round;stroke-linejoin:miter;stroke-miterlimit:4;stroke-opacity:1;stroke-dasharray:none" />
    </g>
    <path
       d="m 37.318262,1047.2107 c -2.269103,2.2691 -1.151259,1.1515 -1.151259,1.1515 l 0,0 0.02402,-0.024 -0.501708,0.5014"
       id="path4247"
       style="fill:#000000;fill-opacity:0;stroke:#000000;stroke-width:0.5;stroke-linecap:round;stroke-linejoin:miter;stroke-miterlimit:4;stroke-opacity:1;stroke-dasharray:none" />
    <path
       d="m 42.317855,1045.2107 c -2.269103,2.2691 -1.151259,1.1515 -1.151259,1.1515 l 0,0 0.02402,-0.024 -0.501708,0.5014"
       id="path4249"
       style="fill:#000000;fill-opacity:0;stroke:#000000;stroke-width:0.5;stroke-linecap:round;stroke-linejoin:miter;stroke-miterlimit:4;stroke-opacity:1;stroke-dasharray:none" />
    <path
       d="m 45.318262,1047.2107 c -2.269103,2.2691 -1.151259,1.1515 -1.151259,1.1515 l 0,0 0.02402,-0.024 -0.501708,0.5014"
       id="path4251"
       style="fill:#000000;fill-opacity:0;stroke:#000000;stroke-width:0.5;stroke-linecap:round;stroke-linejoin:miter;stroke-miterlimit:4;stroke-opacity:1;stroke-dasharray:none" />
    <path
       d="m -9.4375,11.09375 a 1.46875,1.46875 0 1 1 -2.9375,0 1.46875,1.46875 0 1 1 2.9375,0 z"
       transform="matrix(1.0001486,0,0,0.99997839,17.658229,1016.7999)"
       id="path4555"
       style="fill:#000000;fill-opacity:1;fill-rule:nonzero;stroke:#000000;stroke-width:1;stroke-linecap:round;stroke-linejoin:round;stroke-miterlimit:4;stroke-opacity:1;stroke-dasharray:none" />
    <path
       d="m 11.375,9.6875 a 0.78125,3.6875 0 1 1 -1.5625,0 0.78125,3.6875 0 1 1 1.5625,0 z"
       transform="translate(-0.625,1023.6747)"
       id="path4557"
       style="fill:#000000;fill-opacity:1;fill-rule:nonzero;stroke:#000000;stroke-width:1;stroke-linecap:round;stroke-linejoin:round;stroke-miterlimit:4;stroke-opacity:1;stroke-dasharray:none" />
    <path
       d="m 14.074297,1036.525 c 0.17489,-0.7676 0.284297,-1.8631 0.284297,-3.0792 0,-1.4373 -0.152807,-2.706 -0.385922,-3.4641"
       id="path4603"
       style="fill:none;stroke:#000000;stroke-width:1.1400001;stroke-linecap:butt;stroke-linejoin:miter;stroke-miterlimit:4;stroke-opacity:1;stroke-dasharray:none" />
    <path
       d="m 12.97152,1029.8338 c 0.253363,0.7857 0.421701,2.0819 0.421701,3.6219 0,1.4328 -0.145723,2.6546 -0.370067,3.4505"
       id="path4561"
       style="fill:none;stroke:#000000;stroke-width:1.19700015;stroke-linecap:butt;stroke-linejoin:miter;stroke-miterlimit:4;stroke-opacity:1;stroke-dasharray:none" />
    <path
       d="M 9.8781408,1037.2486 C 23.690641,1035.4199 24,1035.2211 24,1035.2211 l 0,0"
       id="path4572"
       style="fill:none;stroke:#000000;stroke-width:0.5;stroke-linecap:butt;stroke-linejoin:miter;stroke-miterlimit:4;stroke-opacity:1;stroke-dasharray:none" />
    <path
       d="M 9.8781408,1029.42 C 23.690641,1031.2487 24,1031.4475 24,1031.4475 l 0,0"
       id="path4574"
       style="fill:none;stroke:#000000;stroke-width:0.5;stroke-linecap:butt;stroke-linejoin:miter;stroke-miterlimit:4;stroke-opacity:1;stroke-dasharray:none" />
    <path
       d="m 18.178988,1036.0098 c 0.115399,-0.7088 0.184004,-1.5962 0.184004,-2.5592 0,-1.0562 -0.08252,-2.0213 -0.218787,-2.7598"
       id="path4610"
       style="fill:none;stroke:#000000;stroke-width:1.1400001;stroke-linecap:butt;stroke-linejoin:round;stroke-miterlimit:4;stroke-opacity:1;stroke-dasharray:none" />
    <path
       d="m 17.096914,1030.41 c 0.177412,0.7531 0.289225,1.8159 0.289225,3.0408 0,1.1227 -0.09395,2.1094 -0.246266,2.8461"
       id="path4576"
       style="fill:none;stroke:#000000;stroke-width:1.1400001;stroke-linecap:butt;stroke-linejoin:round;stroke-miterlimit:4;stroke-opacity:1;stroke-dasharray:none" />
    <path
       d="m 22.250273,13.248561 c 0.07547,-0.637664 0.118477,-1.372551 0.118477,-2.154861 0,-0.880371 -0.05447,-1.7006863 -0.148365,-2.3899701"
       transform="translate(0,1022.3622)"
       id="path4617"
       style="fill:none;stroke:#000000;stroke-width:1.20000005;stroke-linecap:butt;stroke-linejoin:round;stroke-miterlimit:4;stroke-opacity:1;stroke-dasharray:none" />
    <path
       d="m 21.196521,1030.8904 c 0.120151,0.6979 0.192172,1.5766 0.192172,2.5596 0,0.881 -0.05784,1.6781 -0.156328,2.3365"
       id="path4578"
       style="fill:none;stroke:#000000;stroke-width:1.1400001;stroke-linecap:butt;stroke-linejoin:round;stroke-miterlimit:4;stroke-opacity:1;stroke-dasharray:none" />
    <path
       d="m 23.9,1035.2782 c 0,0 0.6788,-0.5198 0.693563,-1.9469 0.01824,-1.7631 -0.693563,-1.9191 -0.693563,-1.9191"
       id="path4619"
       style="fill:none;stroke:#000000;stroke-width:0.50999999;stroke-linecap:butt;stroke-linejoin:round;stroke-miterlimit:4;stroke-opacity:1;stroke-dasharray:none" />
  </g>
</svg>
