<?xml version="1.0" encoding="UTF-8" standalone="no"?>
<!-- Created with Inkscape (http://www.inkscape.org/) -->

<svg
   xmlns:dc="http://purl.org/dc/elements/1.1/"
   xmlns:cc="http://creativecommons.org/ns#"
   xmlns:rdf="http://www.w3.org/1999/02/22-rdf-syntax-ns#"
   xmlns:svg="http://www.w3.org/2000/svg"
   xmlns="http://www.w3.org/2000/svg"
   version="1.1"
   width="30"
   height="30"
   id="svg2">
  <defs
     id="defs4" />
  <metadata
     id="metadata7">
    <rdf:RDF>
      <cc:Work
         rdf:about="">
        <dc:format>image/svg+xml</dc:format>
        <dc:type
           rdf:resource="http://purl.org/dc/dcmitype/StillImage" />
        <dc:title></dc:title>
      </cc:Work>
    </rdf:RDF>
  </metadata>
  <g
     transform="translate(0,-1022.3622)"
     id="layer1">
    <path
       d="m 14.862753,14.900793 a 5.3708587,5.3708587 0 1 1 -10.7417169,0 5.3708587,5.3708587 0 1 1 10.7417169,0 z"
       transform="translate(5.5081053,1022.4614)"
       id="path3077"
       style="fill:none;stroke:#000000;stroke-width:1.5;stroke-miterlimit:4;stroke-opacity:1;stroke-dasharray:none" />
    <path
       d="m 15,1025.1872 c 0,3.209 0,3.209 0,3.209 l 0,0 0,-0.034 0,0.7093"
       id="path3855"
       style="fill:none;stroke:#000000;stroke-width:1.5;stroke-linecap:round;stroke-linejoin:miter;stroke-miterlimit:4;stroke-opacity:1;stroke-dasharray:none" />
    <path
       d="m 15,1046.3622 c 0,3.209 0,3.209 0,3.209 l 0,0 0,-0.034 0,0.7093"
       id="path3857"
       style="fill:none;stroke:#000000;stroke-width:1.5;stroke-linecap:round;stroke-linejoin:miter;stroke-miterlimit:4;stroke-opacity:1;stroke-dasharray:none" />
    <path
       d="m 6,1028.3622 c 2.269105,2.2691 2.269105,2.2691 2.269105,2.2691 l 0,0 -0.02404,-0.024 0.50155,0.5016"
       id="path3859"
       style="fill:none;stroke:#000000;stroke-width:1.5;stroke-linecap:round;stroke-linejoin:miter;stroke-miterlimit:4;stroke-opacity:1;stroke-dasharray:none" />
    <path
       d="m 21.253385,1043.6155 c 2.269105,2.2691 2.269105,2.2691 2.269105,2.2691 l 0,0 -0.02404,-0.024 0.50155,0.5016"
       id="path3861"
       style="fill:none;stroke:#000000;stroke-width:1.5;stroke-linecap:round;stroke-linejoin:miter;stroke-miterlimit:4;stroke-opacity:1;stroke-dasharray:none" />
    <path
       d="m 6,1046.3622 c 2.269105,-2.2691 2.269105,-2.2691 2.269105,-2.2691 l 0,0 -0.02404,0.024 0.50155,-0.5016"
       id="path3863"
       style="fill:none;stroke:#000000;stroke-width:1.5;stroke-linecap:round;stroke-linejoin:miter;stroke-miterlimit:4;stroke-opacity:1;stroke-dasharray:none" />
    <path
       d="m 21.253385,1031.1089 c 2.269105,-2.2691 2.269105,-2.2691 2.269105,-2.2691 l 0,0 -0.02404,0.024 L 24,1028.3622"
       id="path3865"
       style="fill:none;stroke:#000000;stroke-width:1.5;stroke-linecap:round;stroke-linejoin:miter;stroke-miterlimit:4;stroke-opacity:1;stroke-dasharray:none" />
    <path
       d="m 6,1037.3622 c -3.209,0 -3.209,0 -3.209,0 l 0,0 0.034,0 -0.7093,0"
       id="path3867"
       style="fill:none;stroke:#000000;stroke-width:1.5;stroke-linecap:round;stroke-linejoin:miter;stroke-miterlimit:4;stroke-opacity:1;stroke-dasharray:none" />
    <path
       d="m 27.175,1037.3622 c -3.209,0 -3.209,0 -3.209,0 l 0,0 0.034,0 -0.7093,0"
       id="path3869"
       style="fill:none;stroke:#000000;stroke-width:1.5;stroke-linecap:round;stroke-linejoin:miter;stroke-miterlimit:4;stroke-opacity:1;stroke-dasharray:none" />
  </g>
</svg>
