<?xml version="1.0" encoding="UTF-8" standalone="no"?>
<!-- Created with Inkscape (http://www.inkscape.org/) -->

<svg
   xmlns:dc="http://purl.org/dc/elements/1.1/"
   xmlns:cc="http://creativecommons.org/ns#"
   xmlns:rdf="http://www.w3.org/1999/02/22-rdf-syntax-ns#"
   xmlns:svg="http://www.w3.org/2000/svg"
   xmlns="http://www.w3.org/2000/svg"
   xmlns:sodipodi="http://sodipodi.sourceforge.net/DTD/sodipodi-0.dtd"
   xmlns:inkscape="http://www.inkscape.org/namespaces/inkscape"
   width="30"
   height="30"
   id="svg2"
   version="1.1"
   inkscape:version="0.48.5 r10040"
   sodipodi:docname="weather-moon-icon.svg">
  <defs
     id="defs4" />
  <sodipodi:namedview
     id="base"
     pagecolor="#ffffff"
     bordercolor="#666666"
     borderopacity="1.0"
     inkscape:pageopacity="0.40784314"
     inkscape:pageshadow="2"
     inkscape:zoom="18.06"
     inkscape:cx="11.44092"
     inkscape:cy="14.394112"
     inkscape:document-units="px"
     inkscape:current-layer="layer1"
     showgrid="false"
     inkscape:snap-page="true"
     showguides="true"
     inkscape:guide-bbox="true"
     inkscape:window-width="1607"
     inkscape:window-height="941"
     inkscape:window-x="95"
     inkscape:window-y="47"
     inkscape:window-maximized="0"
     inkscape:snap-from-guide="false">
    <sodipodi:guide
       orientation="0,1"
       position="4.1082803,6"
       id="guide2985" />
    <sodipodi:guide
       orientation="0,1"
       position="-6.4012739,24"
       id="guide2987" />
    <sodipodi:guide
       orientation="1,0"
       position="6,27.277"
       id="guide2989" />
    <sodipodi:guide
       orientation="1,0"
       position="24,24"
       id="guide2991" />
  </sodipodi:namedview>
  <metadata
     id="metadata7">
    <rdf:RDF>
      <cc:Work
         rdf:about="">
        <dc:format>image/svg+xml</dc:format>
        <dc:type
           rdf:resource="http://purl.org/dc/dcmitype/StillImage" />
        <dc:title></dc:title>
      </cc:Work>
    </rdf:RDF>
  </metadata>
  <g
     inkscape:label="Layer 1"
     inkscape:groupmode="layer"
     id="layer1"
     transform="translate(0,-1022.3622)">
    <path
       style="fill:none;stroke:#000000;stroke-width:2;stroke-miterlimit:4;stroke-opacity:1;stroke-dasharray:none;stroke-linejoin:round"
       d="M 15 7.09375 C 10.63849 7.09375 7.09375 10.63849 7.09375 15 C 7.09375 19.36151 10.63849 22.90625 15 22.90625 C 16.690085 22.90625 18.246842 22.372889 19.53125 21.46875 C 17.532392 20.043032 16.21875 17.714539 16.21875 15.0625 C 16.21875 12.377033 17.551929 9.9918825 19.59375 8.5625 C 18.299253 7.6348145 16.714073 7.09375 15 7.09375 z "
       transform="translate(0,1022.3622)"
       id="path3077" />
    <g
       id="g4144"
       transform="translate(-1.665437,-1.0520487)">
      <path
         style="fill:none;stroke:#000000;stroke-width:0.5;stroke-linecap:round;stroke-linejoin:miter;stroke-miterlimit:4;stroke-opacity:1;stroke-dasharray:none"
         d="m 25.816921,1034.8985 c 0,-3.209 -1.68e-4,-1.6283 -1.68e-4,-1.6283 l 0,0 0,0.034 1.68e-4,-0.7093"
         id="path3867"
         inkscape:connector-curvature="0"
         sodipodi:nodetypes="ccccc" />
      <path
         sodipodi:nodetypes="ccccc"
         inkscape:connector-curvature="0"
         id="path4142"
         d="m 24.665037,1033.7468 c 3.209,0 1.6283,-2e-4 1.6283,-2e-4 l 0,0 -0.034,0 0.7093,2e-4"
         style="fill:none;stroke:#000000;stroke-width:0.5;stroke-linecap:round;stroke-linejoin:miter;stroke-miterlimit:4;stroke-opacity:1;stroke-dasharray:none" />
    </g>
    <g
       id="g4148"
       transform="translate(-3.969037,1.162791)"
       style="fill:#000000;fill-opacity:0">
      <path
         sodipodi:nodetypes="ccccc"
         inkscape:connector-curvature="0"
         id="path4150"
         d="m 25.816921,1034.8985 c 0,-3.209 -1.68e-4,-1.6283 -1.68e-4,-1.6283 l 0,0 0,0.034 1.68e-4,-0.7093"
         style="fill:#000000;fill-opacity:0;stroke:#000000;stroke-width:0.5;stroke-linecap:round;stroke-linejoin:miter;stroke-miterlimit:4;stroke-opacity:1;stroke-dasharray:none" />
      <path
         style="fill:#000000;fill-opacity:0;stroke:#000000;stroke-width:0.5;stroke-linecap:round;stroke-linejoin:miter;stroke-miterlimit:4;stroke-opacity:1;stroke-dasharray:none"
         d="m 24.665037,1033.7468 c 3.209,0 1.6283,-2e-4 1.6283,-2e-4 l 0,0 -0.034,0 0.7093,2e-4"
         id="path4152"
         inkscape:connector-curvature="0"
         sodipodi:nodetypes="ccccc" />
    </g>
    <g
       style="fill:#000000;fill-opacity:0"
       transform="translate(-1.665437,3.3776302)"
       id="g4154">
      <path
         style="fill:#000000;fill-opacity:0;stroke:#000000;stroke-width:0.5;stroke-linecap:round;stroke-linejoin:miter;stroke-miterlimit:4;stroke-opacity:1;stroke-dasharray:none"
         d="m 25.816921,1034.8985 c 0,-3.209 -1.68e-4,-1.6283 -1.68e-4,-1.6283 l 0,0 0,0.034 1.68e-4,-0.7093"
         id="path4156"
         inkscape:connector-curvature="0"
         sodipodi:nodetypes="ccccc" />
      <path
         sodipodi:nodetypes="ccccc"
         inkscape:connector-curvature="0"
         id="path4158"
         d="m 24.665037,1033.7468 c 3.209,0 1.6283,-2e-4 1.6283,-2e-4 l 0,0 -0.034,0 0.7093,2e-4"
         style="fill:#000000;fill-opacity:0;stroke:#000000;stroke-width:0.5;stroke-linecap:round;stroke-linejoin:miter;stroke-miterlimit:4;stroke-opacity:1;stroke-dasharray:none" />
    </g>
  </g>
</svg>
