<?xml version="1.0" encoding="UTF-8" standalone="no"?>
<!-- Created with Inkscape (http://www.inkscape.org/) -->

<svg
   xmlns:dc="http://purl.org/dc/elements/1.1/"
   xmlns:cc="http://creativecommons.org/ns#"
   xmlns:rdf="http://www.w3.org/1999/02/22-rdf-syntax-ns#"
   xmlns:svg="http://www.w3.org/2000/svg"
   xmlns="http://www.w3.org/2000/svg"
   version="1.1"
   width="30"
   height="30"
   id="svg2">
  <defs
     id="defs4" />
  <metadata
     id="metadata7">
    <rdf:RDF>
      <cc:Work
         rdf:about="">
        <dc:format>image/svg+xml</dc:format>
        <dc:type
           rdf:resource="http://purl.org/dc/dcmitype/StillImage" />
        <dc:title></dc:title>
      </cc:Work>
    </rdf:RDF>
  </metadata>
  <g
     transform="translate(0,-1022.3622)"
     id="layer1">
    <path
       d="m 34.317854,1045.2107 c -2.269103,2.2691 -1.151259,1.1515 -1.151259,1.1515 l 0,0 0.02402,-0.024 -0.501707,0.5014"
       id="path4150"
       style="fill:#000000;fill-opacity:0;stroke:#000000;stroke-width:0.5;stroke-linecap:round;stroke-linejoin:miter;stroke-miterlimit:4;stroke-opacity:1;stroke-dasharray:none" />
    <g
       transform="translate(10.460809,4.9280178)"
       id="g4154"
       style="fill:#000000;fill-opacity:0">
      <path
         d="m 25.816921,1034.8985 c 0,-3.209 -1.68e-4,-1.6283 -1.68e-4,-1.6283 l 0,0 0,0.034 1.68e-4,-0.7093"
         id="path4156"
         style="fill:#000000;fill-opacity:0;stroke:#000000;stroke-width:0.5;stroke-linecap:round;stroke-linejoin:miter;stroke-miterlimit:4;stroke-opacity:1;stroke-dasharray:none" />
      <path
         d="m 24.665037,1033.7468 c 3.209,0 1.6283,-2e-4 1.6283,-2e-4 l 0,0 -0.034,0 0.7093,2e-4"
         id="path4158"
         style="fill:#000000;fill-opacity:0;stroke:#000000;stroke-width:0.5;stroke-linecap:round;stroke-linejoin:miter;stroke-miterlimit:4;stroke-opacity:1;stroke-dasharray:none" />
    </g>
    <path
       d="m 21.358579,20.5114 0.344546,0 0,-0.062 c 3.088924,-0.2661 5.53125,-2.8448 5.53125,-6 0,-3.3323 -2.730171,-6.0312 -6.0625,-6.0312 -0.857862,0 -1.667341,0.1772 -2.40625,0.5 -0.145897,-3.2063 -2.820129,-5.7813 -6.0625,-5.7813 l 0,-3e-4 0,0 c -3.3359605,0 -6.03125,2.7266 -6.03125,6.0625 0,0.2406 0.00389,0.4855 0.03125,0.7188 -2.2631155,0.6427 -3.9375,2.7183 -3.9375,5.1875 0,2.8778 2.2555363,5.2142 5.09375,5.375 l 0,0.031 0.3125,0 0.093967,0"
       transform="translate(0,1022.3622)"
       id="path4265"
       style="fill:none;stroke:#000000;stroke-width:0.5;stroke-linecap:round;stroke-linejoin:round;stroke-miterlimit:4;stroke-opacity:1;stroke-dasharray:none" />
    <path
       d="m 37.318262,1047.2107 c -2.269103,2.2691 -1.151259,1.1515 -1.151259,1.1515 l 0,0 0.02402,-0.024 -0.501708,0.5014"
       id="path4247"
       style="fill:#000000;fill-opacity:0;stroke:#000000;stroke-width:0.5;stroke-linecap:round;stroke-linejoin:miter;stroke-miterlimit:4;stroke-opacity:1;stroke-dasharray:none" />
    <path
       d="m 42.317855,1045.2107 c -2.269103,2.2691 -1.151259,1.1515 -1.151259,1.1515 l 0,0 0.02402,-0.024 -0.501708,0.5014"
       id="path4249"
       style="fill:#000000;fill-opacity:0;stroke:#000000;stroke-width:0.5;stroke-linecap:round;stroke-linejoin:miter;stroke-miterlimit:4;stroke-opacity:1;stroke-dasharray:none" />
    <path
       d="m 45.318262,1047.2107 c -2.269103,2.2691 -1.151259,1.1515 -1.151259,1.1515 l 0,0 0.02402,-0.024 -0.501708,0.5014"
       id="path4251"
       style="fill:#000000;fill-opacity:0;stroke:#000000;stroke-width:0.5;stroke-linecap:round;stroke-linejoin:miter;stroke-miterlimit:4;stroke-opacity:1;stroke-dasharray:none" />
    <path
       d="m 14.849478,1038.1085 c 0,3.8508 2.4e-4,6.7537 2.4e-4,6.7537 l 0,0 0,0.3426 -2.4e-4,2.6074"
       id="path4351"
       style="fill:none;stroke:#000000;stroke-width:0.60000002;stroke-linecap:round;stroke-linejoin:miter;stroke-miterlimit:4;stroke-opacity:1;stroke-dasharray:none" />
    <path
       d="m 13.872564,1046.8294 c 3.850831,0 1.953976,0 1.953976,0 l 0,0 -0.0408,0 0.0408,0"
       id="path4353"
       style="fill:none;stroke:#000000;stroke-width:0.60000002;stroke-linecap:round;stroke-linejoin:miter;stroke-miterlimit:4;stroke-opacity:1;stroke-dasharray:none" />
    <path
       d="m 14.849432,1038.1082 c 0,3.8508 2.4e-4,6.7538 2.4e-4,6.7538 l 0,0 0,0.3426 -2.4e-4,2.6073"
       id="path4355"
       style="fill:none;stroke:#000000;stroke-width:0.60000002;stroke-linecap:round;stroke-linejoin:miter;stroke-miterlimit:4;stroke-opacity:1;stroke-dasharray:none" />
    <path
       d="m 13.872564,1039.0914 c 3.850831,0 1.953976,0 1.953976,0 l 0,0 -0.0408,0 0.0408,0"
       id="path4357"
       style="fill:none;stroke:#000000;stroke-width:0.60000002;stroke-linecap:round;stroke-linejoin:miter;stroke-miterlimit:4;stroke-opacity:1;stroke-dasharray:none" />
    <g
       transform="matrix(0.96592583,-0.25881905,0.25881905,0.96592583,-269.52957,39.456975)"
       id="g4430"
       style="stroke-width:0.60000002;stroke-miterlimit:4;stroke-dasharray:none">
      <path
         d="m 11.569251,1039.5296 c 2.722949,2.7229 4.77581,4.7754 4.77581,4.7754 l 0,0 0.242256,0.2423 1.843528,1.8438"
         id="path4361"
         style="fill:none;stroke:#000000;stroke-width:0.60000002;stroke-linecap:round;stroke-linejoin:miter;stroke-miterlimit:4;stroke-opacity:1;stroke-dasharray:none" />
      <path
         d="m 17.045112,1046.3869 c 2.722948,-2.7229 1.38167,-1.3816 1.38167,-1.3816 l 0,0 -0.02885,0.029 0.02885,-0.029"
         id="path4363"
         style="fill:none;stroke:#000000;stroke-width:0.60000002;stroke-linecap:round;stroke-linejoin:miter;stroke-miterlimit:4;stroke-opacity:1;stroke-dasharray:none" />
      <path
         d="m 11.573504,1040.9154 c 2.722948,-2.7229 1.38167,-1.3817 1.38167,-1.3817 l 0,0 -0.02885,0.029 0.02885,-0.029"
         id="path4367"
         style="fill:none;stroke:#000000;stroke-width:0.60000002;stroke-linecap:round;stroke-linejoin:miter;stroke-miterlimit:4;stroke-opacity:1;stroke-dasharray:none" />
    </g>
    <g
       transform="matrix(0.96592583,0.25881905,-0.25881905,0.96592583,270.25083,31.69235)"
       id="g4425"
       style="stroke-width:0.60000002;stroke-miterlimit:4;stroke-dasharray:none">
      <path
         d="m 11.569286,1046.3909 c 2.722949,-2.7229 4.775471,-4.7758 4.775471,-4.7758 l 0,0 0.242257,-0.2422 1.843866,-1.8435"
         id="path4381"
         style="fill:none;stroke:#000000;stroke-width:0.60000002;stroke-linecap:round;stroke-linejoin:miter;stroke-miterlimit:4;stroke-opacity:1;stroke-dasharray:none" />
      <path
         d="m 18.426712,1040.9151 c -2.722949,-2.7229 -1.38167,-1.3817 -1.38167,-1.3817 l 0,0 0.02885,0.029 -0.02885,-0.029"
         id="path4383"
         style="fill:none;stroke:#000000;stroke-width:0.60000002;stroke-linecap:round;stroke-linejoin:miter;stroke-miterlimit:4;stroke-opacity:1;stroke-dasharray:none" />
      <path
         d="m 12.955104,1046.3866 c -2.722949,-2.7229 -1.38167,-1.3816 -1.38167,-1.3816 l 0,0 0.02885,0.029 -0.02885,-0.029"
         id="path4387"
         style="fill:none;stroke:#000000;stroke-width:0.60000002;stroke-linecap:round;stroke-linejoin:miter;stroke-miterlimit:4;stroke-opacity:1;stroke-dasharray:none" />
    </g>
  </g>
</svg>
