<?xml version="1.0" encoding="UTF-8" standalone="no"?>
<!-- Created with Inkscape (http://www.inkscape.org/) -->

<svg
   xmlns:dc="http://purl.org/dc/elements/1.1/"
   xmlns:cc="http://creativecommons.org/ns#"
   xmlns:rdf="http://www.w3.org/1999/02/22-rdf-syntax-ns#"
   xmlns:svg="http://www.w3.org/2000/svg"
   xmlns="http://www.w3.org/2000/svg"
   xmlns:sodipodi="http://sodipodi.sourceforge.net/DTD/sodipodi-0.dtd"
   xmlns:inkscape="http://www.inkscape.org/namespaces/inkscape"
   width="30"
   height="30"
   id="svg2"
   version="1.1"
   inkscape:version="0.48.5 r10040"
   sodipodi:docname="weather-little-rain-icon.svg">
  <defs
     id="defs4" />
  <sodipodi:namedview
     id="base"
     pagecolor="#ffffff"
     bordercolor="#666666"
     borderopacity="1.0"
     inkscape:pageopacity="0.40784314"
     inkscape:pageshadow="2"
     inkscape:zoom="25.540697"
     inkscape:cx="14.391913"
     inkscape:cy="14.478858"
     inkscape:document-units="px"
     inkscape:current-layer="layer1"
     showgrid="false"
     inkscape:snap-page="true"
     showguides="true"
     inkscape:guide-bbox="true"
     inkscape:window-width="1607"
     inkscape:window-height="941"
     inkscape:window-x="95"
     inkscape:window-y="47"
     inkscape:window-maximized="0"
     inkscape:snap-from-guide="false">
    <sodipodi:guide
       orientation="0,1"
       position="4.1082803,6"
       id="guide2985" />
    <sodipodi:guide
       orientation="0,1"
       position="-6.4012739,24"
       id="guide2987" />
    <sodipodi:guide
       orientation="1,0"
       position="6,27.277"
       id="guide2989" />
    <sodipodi:guide
       orientation="1,0"
       position="24,24"
       id="guide2991" />
  </sodipodi:namedview>
  <metadata
     id="metadata7">
    <rdf:RDF>
      <cc:Work
         rdf:about="">
        <dc:format>image/svg+xml</dc:format>
        <dc:type
           rdf:resource="http://purl.org/dc/dcmitype/StillImage" />
        <dc:title></dc:title>
      </cc:Work>
    </rdf:RDF>
  </metadata>
  <g
     inkscape:label="Layer 1"
     inkscape:groupmode="layer"
     id="layer1"
     transform="translate(0,-1022.3622)">
    <g
       id="g4144"
       transform="translate(10.460809,0.4983389)">
      <path
         style="fill:none;stroke:#000000;stroke-width:0.5;stroke-linecap:round;stroke-linejoin:miter;stroke-miterlimit:4;stroke-opacity:1;stroke-dasharray:none"
         d="m 25.816921,1034.8985 c 0,-3.209 -1.68e-4,-1.6283 -1.68e-4,-1.6283 l 0,0 0,0.034 1.68e-4,-0.7093"
         id="path3867"
         inkscape:connector-curvature="0"
         sodipodi:nodetypes="ccccc" />
      <path
         sodipodi:nodetypes="ccccc"
         inkscape:connector-curvature="0"
         id="path4142"
         d="m 24.665037,1033.7468 c 3.209,0 1.6283,-2e-4 1.6283,-2e-4 l 0,0 -0.034,0 0.7093,2e-4"
         style="fill:none;stroke:#000000;stroke-width:0.5;stroke-linecap:round;stroke-linejoin:miter;stroke-miterlimit:4;stroke-opacity:1;stroke-dasharray:none" />
    </g>
    <path
       style="fill:#000000;fill-opacity:0;stroke:#000000;stroke-width:0.5;stroke-linecap:round;stroke-linejoin:miter;stroke-miterlimit:4;stroke-opacity:1;stroke-dasharray:none"
       d="m 9.3455399,1045.2107 c -2.269103,2.2691 -1.1512592,1.1515 -1.1512592,1.1515 l 0,0 0.024021,-0.024 -0.5017075,0.5014"
       id="path4150"
       inkscape:connector-curvature="0"
       sodipodi:nodetypes="ccccc" />
    <g
       style="fill:#000000;fill-opacity:0"
       transform="translate(10.460809,4.9280178)"
       id="g4154">
      <path
         style="fill:#000000;fill-opacity:0;stroke:#000000;stroke-width:0.5;stroke-linecap:round;stroke-linejoin:miter;stroke-miterlimit:4;stroke-opacity:1;stroke-dasharray:none"
         d="m 25.816921,1034.8985 c 0,-3.209 -1.68e-4,-1.6283 -1.68e-4,-1.6283 l 0,0 0,0.034 1.68e-4,-0.7093"
         id="path4156"
         inkscape:connector-curvature="0"
         sodipodi:nodetypes="ccccc" />
      <path
         sodipodi:nodetypes="ccccc"
         inkscape:connector-curvature="0"
         id="path4158"
         d="m 24.665037,1033.7468 c 3.209,0 1.6283,-2e-4 1.6283,-2e-4 l 0,0 -0.034,0 0.7093,2e-4"
         style="fill:#000000;fill-opacity:0;stroke:#000000;stroke-width:0.5;stroke-linecap:round;stroke-linejoin:miter;stroke-miterlimit:4;stroke-opacity:1;stroke-dasharray:none" />
    </g>
    <path
       style="fill:#000000;fill-opacity:0;stroke:#000000;stroke-width:0.5;stroke-linecap:round;stroke-linejoin:round;stroke-miterlimit:4;stroke-opacity:1;stroke-dasharray:none"
       d="m 12.703125,1025.4988 c -3.3359605,0 -6.03125,2.7266 -6.03125,6.0625 0,0.2406 0.00389,0.4855 0.03125,0.7188 -2.2631155,0.6427 -3.9375,2.7183 -3.9375,5.1875 0,2.8778 2.2555363,5.2142 5.09375,5.375 l 0,0.031 0.3125,0 13.53125,0 0,-0.062 c 3.088924,-0.2661 5.53125,-2.8448 5.53125,-6 0,-3.3323 -2.730171,-6.0312 -6.0625,-6.0312 -0.857862,0 -1.667341,0.1772 -2.40625,0.5 -0.145897,-3.2063 -2.820129,-5.7813 -6.0625,-5.7813 z"
       id="path4179"
       inkscape:connector-curvature="0" />
    <path
       sodipodi:nodetypes="ccccc"
       inkscape:connector-curvature="0"
       id="path4247"
       d="m 12.345947,1047.2107 c -2.269103,2.2691 -1.151259,1.1515 -1.151259,1.1515 l 0,0 0.02402,-0.024 -0.501708,0.5014"
       style="fill:#000000;fill-opacity:0;stroke:#000000;stroke-width:0.5;stroke-linecap:round;stroke-linejoin:miter;stroke-miterlimit:4;stroke-opacity:1;stroke-dasharray:none" />
    <path
       style="fill:#000000;fill-opacity:0;stroke:#000000;stroke-width:0.5;stroke-linecap:round;stroke-linejoin:miter;stroke-miterlimit:4;stroke-opacity:1;stroke-dasharray:none"
       d="m 17.34554,1045.2107 c -2.269103,2.2691 -1.151259,1.1515 -1.151259,1.1515 l 0,0 0.02402,-0.024 -0.501708,0.5014"
       id="path4249"
       inkscape:connector-curvature="0"
       sodipodi:nodetypes="ccccc" />
    <path
       sodipodi:nodetypes="ccccc"
       inkscape:connector-curvature="0"
       id="path4251"
       d="m 20.345947,1047.2107 c -2.269103,2.2691 -1.151259,1.1515 -1.151259,1.1515 l 0,0 0.02402,-0.024 -0.501708,0.5014"
       style="fill:#000000;fill-opacity:0;stroke:#000000;stroke-width:0.5;stroke-linecap:round;stroke-linejoin:miter;stroke-miterlimit:4;stroke-opacity:1;stroke-dasharray:none" />
  </g>
</svg>
