<?xml version="1.0" encoding="UTF-8" standalone="no"?>
<!-- Created with Inkscape (http://www.inkscape.org/) -->

<svg
   xmlns:osb="http://www.openswatchbook.org/uri/2009/osb"
   xmlns:dc="http://purl.org/dc/elements/1.1/"
   xmlns:cc="http://creativecommons.org/ns#"
   xmlns:rdf="http://www.w3.org/1999/02/22-rdf-syntax-ns#"
   xmlns:svg="http://www.w3.org/2000/svg"
   xmlns="http://www.w3.org/2000/svg"
   xmlns:sodipodi="http://sodipodi.sourceforge.net/DTD/sodipodi-0.dtd"
   xmlns:inkscape="http://www.inkscape.org/namespaces/inkscape"
   width="30"
   height="30"
   id="svg2"
   version="1.1"
   inkscape:version="0.48.5 r10040"
   sodipodi:docname="equestrian-icon.svg">
  <defs
     id="defs4">
    <linearGradient
       id="linearGradient4543"
       osb:paint="solid">
      <stop
         style="stop-color:#000000;stop-opacity:1;"
         offset="0"
         id="stop4545" />
    </linearGradient>
    <linearGradient
       id="linearGradient4537"
       osb:paint="solid">
      <stop
         style="stop-color:#000000;stop-opacity:1;"
         offset="0"
         id="stop4539" />
    </linearGradient>
    <clipPath
       clipPathUnits="userSpaceOnUse"
       id="clipPath3955">
      <path
         style="fill:none;stroke:#000000;stroke-width:1px;stroke-linecap:round;stroke-linejoin:round;stroke-opacity:1"
         d="m 13.068049,11.8002 c 0,0 -1.667464,0.6518 -1.819979,1.4023 -0.301588,1.4841 -0.66935,2.5352 -0.829512,3.2577 -0.125326,0.5653 -0.5978446,0.6746 -0.948584,0.645 -0.5272373,-0.044 -0.7977494,-0.4739 -0.7201057,-0.9855 0.1163416,-0.7664 0.2933536,-1.9908 0.8572365,-3.9018 0.5844192,-1.9806 2.2403482,-2.7226 3.8189732,-3.3118 0.717449,-0.2677 1.542002,-0.1259 2.297351,0 2.202311,0.3674 1.59449,1.8016 3.030008,4.3241 0.322943,0.5675 1.490812,1.0447 2.267919,1.3462 0.777107,0.3016 0.915712,0.8416 0.754486,1.2146 -0.161227,0.3729 -0.358195,0.8682 -1.400933,0.553 -1.042739,-0.3152 -2.931246,-1.4409 -2.931246,-1.4409 l -1.093683,-0.9846 -0.656386,2.7151 3.773416,8.351 c 0.218005,0.4825 0.16921,0.9151 -0.317955,1.2612 -0.487165,0.3461 -1.202297,0.2182 -1.517382,-0.3682 l -3.459702,-6.4394 -1.402279,3.1327 c 0,0 -2.669333,4.7828 -4.177002,3.6749 -1.5076686,-1.1078 1.681989,-3.17 2.357023,-4.8982 0.561887,-1.4384 1.402279,-4.4156 1.402279,-4.4156 z"
         id="path3957"
         inkscape:connector-curvature="0" />
    </clipPath>
  </defs>
  <sodipodi:namedview
     id="base"
     pagecolor="#ffffff"
     bordercolor="#666666"
     borderopacity="1.0"
     inkscape:pageopacity="0.40784314"
     inkscape:pageshadow="2"
     inkscape:zoom="11.313709"
     inkscape:cx="16.250737"
     inkscape:cy="12.122854"
     inkscape:document-units="px"
     inkscape:current-layer="layer1"
     showgrid="false"
     inkscape:snap-page="true"
     showguides="true"
     inkscape:guide-bbox="true"
     inkscape:window-width="1382"
     inkscape:window-height="918"
     inkscape:window-x="73"
     inkscape:window-y="17"
     inkscape:window-maximized="0"
     inkscape:snap-from-guide="false">
    <sodipodi:guide
       orientation="0,1"
       position="15.398024,5.9267868"
       id="guide2985" />
    <sodipodi:guide
       orientation="0,1"
       position="29.2827,33.586498"
       id="guide2987" />
    <sodipodi:guide
       orientation="1,0"
       position="0.65625,22.8125"
       id="guide2989" />
    <sodipodi:guide
       orientation="1,0"
       position="28.78125,25.78125"
       id="guide2991" />
  </sodipodi:namedview>
  <metadata
     id="metadata7">
    <rdf:RDF>
      <cc:Work
         rdf:about="">
        <dc:format>image/svg+xml</dc:format>
        <dc:type
           rdf:resource="http://purl.org/dc/dcmitype/StillImage" />
        <dc:title></dc:title>
      </cc:Work>
    </rdf:RDF>
  </metadata>
  <g
     inkscape:label="Layer 1"
     inkscape:groupmode="layer"
     id="layer1"
     transform="translate(0,-1022.3622)">
    <g
       id="g4035"
       transform="translate(-0.34246671,0.22858525)">
      <path
         transform="translate(32.526912,1018.6499)"
         d="m -18.119611,8.6542139 c 0,0.9030874 -0.732097,1.6351841 -1.635184,1.6351841 -0.903087,0 -1.635184,-0.7320967 -1.635184,-1.6351841 0,-0.9030874 0.732097,-1.6351844 1.635184,-1.6351844 0.903087,0 1.635184,0.732097 1.635184,1.6351844 z"
         sodipodi:ry="1.6351844"
         sodipodi:rx="1.6351844"
         sodipodi:cy="8.6542139"
         sodipodi:cx="-19.754795"
         id="path4013"
         style="fill:#000000;fill-opacity:1;fill-rule:nonzero;stroke:none"
         sodipodi:type="arc" />
      <path
         transform="translate(0,1022.3622)"
         inkscape:connector-curvature="0"
         id="path4015"
         d="m 12.75,8.5625 0,5.375"
         style="fill:none;stroke:#000000;stroke-width:3;stroke-linecap:round;stroke-linejoin:miter;stroke-miterlimit:4;stroke-opacity:1;stroke-dasharray:none" />
      <path
         transform="translate(0,1022.3622)"
         inkscape:connector-curvature="0"
         id="path4017"
         d="M 13.0625,9.4375 C 16.5,10.5625 16.5,10.5625 16.5,10.5625"
         style="fill:none;stroke:#000000;stroke-width:1.5;stroke-linecap:round;stroke-linejoin:miter;stroke-miterlimit:4;stroke-opacity:1;stroke-dasharray:none" />
      <path
         sodipodi:nodetypes="cc"
         style="fill:none;stroke:#000000;stroke-width:2;stroke-linecap:round;stroke-linejoin:miter;stroke-miterlimit:4;stroke-opacity:1;stroke-dasharray:none"
         d="m 18.254738,1039.4872 2.62e-4,8"
         id="path4019"
         inkscape:connector-curvature="0" />
      <path
         inkscape:connector-curvature="0"
         id="path4021"
         d="m 8.129738,1039.5809 -1.624869,2.5 1.31e-4,5.5"
         style="fill:none;stroke:#000000;stroke-width:2;stroke-linecap:round;stroke-linejoin:miter;stroke-miterlimit:4;stroke-opacity:1;stroke-dasharray:none"
         sodipodi:nodetypes="ccc" />
      <path
         sodipodi:nodetypes="ccc"
         style="fill:none;stroke:#000000;stroke-width:2;stroke-linecap:round;stroke-linejoin:miter;stroke-miterlimit:4;stroke-opacity:1;stroke-dasharray:none"
         d="m 10.37899,1039.5851 -0.5452873,2.9314 2.1034813,5.0818"
         id="path4023"
         inkscape:connector-curvature="0" />
      <path
         sodipodi:nodetypes="sszss"
         inkscape:connector-curvature="0"
         id="rect4025"
         d="M 3.84375,14.1875 C 3.4119007,11.84867 6.0883847,11.725002 6.625,12.09375 c 1.3567499,0.932323 -0.8970941,1.032841 -1.03125,2.21875 -0.1341559,1.185909 -1.2274271,5.1746 -1.875,4.125 0,0 0.5403622,-2.000462 0.125,-4.25 z"
         style="fill:#000000;fill-opacity:1;fill-rule:nonzero;stroke:none"
         transform="translate(0,1022.3622)" />
      <path
         sodipodi:nodetypes="sssszccss"
         inkscape:connector-curvature="0"
         id="rect4028"
         d="m 6.34375,12.1875 c 0.9826011,-1.428298 9.831347,0.29617 10.34375,-0.04687 0.452319,-0.302815 6.30007,-6.8224986 6.5625,-6.703125 0.297736,0.1354337 -0.03125,1.703125 -0.03125,1.703125 -0.01,0.5447637 4.12964,2.2156516 3.71875,3.398438 -0.41089,1.182786 -3.8125,0.183594 -3.8125,0.183594 l -3.8125,7.433593 c 0,0 -9.220036,0.420313 -13,0.21875 -0.4801261,-0.0256 -1.2085476,-4.385348 0.03125,-6.187505 z"
         style="fill:#000000;fill-opacity:1;fill-rule:nonzero;stroke:none"
         transform="translate(0,1022.3622)" />
      <path
         sodipodi:nodetypes="czc"
         inkscape:connector-curvature="0"
         id="path4033"
         d="m 25.234874,1032.74 c 0,0 -0.212959,2.0567 -1.104854,2.74 -0.891896,0.6834 -4.110059,0.8397 -4.110059,0.8397"
         style="fill:none;stroke:#000000;stroke-width:1px;stroke-linecap:butt;stroke-linejoin:miter;stroke-opacity:1" />
    </g>
  </g>
</svg>
