<?xml version="1.0" encoding="UTF-8" standalone="no"?>
<!-- Created with Inkscape (http://www.inkscape.org/) -->

<svg
   xmlns:dc="http://purl.org/dc/elements/1.1/"
   xmlns:cc="http://creativecommons.org/ns#"
   xmlns:rdf="http://www.w3.org/1999/02/22-rdf-syntax-ns#"
   xmlns:svg="http://www.w3.org/2000/svg"
   xmlns="http://www.w3.org/2000/svg"
   xmlns:sodipodi="http://sodipodi.sourceforge.net/DTD/sodipodi-0.dtd"
   xmlns:inkscape="http://www.inkscape.org/namespaces/inkscape"
   version="1.1"
   width="30"
   height="30"
   id="svg2"
   inkscape:version="0.48.5 r10040"
   sodipodi:docname="motorcycle-icon.svg">
  <sodipodi:namedview
     pagecolor="#ffffff"
     bordercolor="#666666"
     borderopacity="1"
     objecttolerance="10"
     gridtolerance="10"
     guidetolerance="10"
     inkscape:pageopacity="0"
     inkscape:pageshadow="2"
     inkscape:window-width="1446"
     inkscape:window-height="945"
     id="namedview16"
     showgrid="false"
     inkscape:zoom="34.271109"
     inkscape:cx="15.247447"
     inkscape:cy="13.567764"
     inkscape:window-x="65"
     inkscape:window-y="0"
     inkscape:window-maximized="0"
     inkscape:current-layer="svg2" />
  <defs
     id="defs4">
    <linearGradient
       id="linearGradient4543">
      <stop
         id="stop4545"
         style="stop-color:#000000;stop-opacity:1"
         offset="0" />
    </linearGradient>
    <linearGradient
       id="linearGradient4537">
      <stop
         id="stop4539"
         style="stop-color:#000000;stop-opacity:1"
         offset="0" />
    </linearGradient>
  </defs>
  <metadata
     id="metadata7">
    <rdf:RDF>
      <cc:Work
         rdf:about="">
        <dc:format>image/svg+xml</dc:format>
        <dc:type
           rdf:resource="http://purl.org/dc/dcmitype/StillImage" />
        <dc:title />
      </cc:Work>
    </rdf:RDF>
  </metadata>
  <path
     d="m 26.279131,18.909623 a 3.2039419,3.2039419 0 1 1 -6.407883,0 3.2039419,3.2039419 0 1 1 6.407883,0 z"
     id="path3977"
     style="fill:none;stroke:#000000;stroke-width:1.57499993;stroke-linecap:round;stroke-linejoin:miter;stroke-miterlimit:4;stroke-opacity:1;stroke-dasharray:none"
     inkscape:connector-curvature="0" />
  <path
     d="m 8.7453523,16.179568 c -0.07311,0.089 1.2722677,2.554362 1.2722677,2.554362 L 6.9880122,18.9969 z"
     id="rect3979"
     style="fill:none;stroke:#000000;stroke-width:1.29999995;stroke-linecap:round;stroke-linejoin:round;stroke-miterlimit:4;stroke-opacity:1;stroke-dasharray:none"
     inkscape:connector-curvature="0"
     sodipodi:nodetypes="cccc" />
  <path
     d="M 23.135798,19.1647 17.438659,9.5526 15.696727,9.171"
     id="path3988"
     style="fill:none;stroke:#000000;stroke-width:1.29999995;stroke-linecap:round;stroke-linejoin:round;stroke-miterlimit:4;stroke-opacity:1;stroke-dasharray:none"
     inkscape:connector-curvature="0" />
  <path
     d="m 10.279131,18.909623 a 3.2039419,3.2039419 0 1 1 -6.4078833,0 3.2039419,3.2039419 0 1 1 6.4078833,0 z"
     id="path3786"
     style="fill:none;stroke:#000000;stroke-width:1.57499993;stroke-linecap:round;stroke-linejoin:miter;stroke-miterlimit:4;stroke-opacity:1;stroke-dasharray:none"
     inkscape:connector-curvature="0" />
  <path
     d="m 4.0092969,15.7641 c -0.1172005,-1.1404 4.185067,-1.2783 4.185067,-1.2783 -3.2621679,-1.9862 3.8402941,0.024 4.2424461,-0.4357 2.400473,-2.7461 5.404198,-2.5276 5.404198,-2.5276 0.0617,-1.9143865 3.486709,-1.5689 3.486709,-1.5689 0.0025,-8e-4 -0.02905,1.8317 -0.02905,1.8317 -2.685897,-0.04 -2.393472,0.701259 -4.270773,7.4099 -0.185507,0.66292 -5.232422,0.1163 -5.232422,0.1163 C 9.6274435,13.8562 4.0092969,15.7641 4.0092969,15.7641 z"
     id="rect3791"
     style="fill:none;stroke:#000000;stroke-width:1.29999995;stroke-linecap:round;stroke-linejoin:round;stroke-miterlimit:4;stroke-opacity:1"
     inkscape:connector-curvature="0"
     sodipodi:nodetypes="ccccccscc" />
</svg>
