<?xml version="1.0" encoding="UTF-8" standalone="no"?>
<!-- Created with Inkscape (http://www.inkscape.org/) -->

<svg
   xmlns:dc="http://purl.org/dc/elements/1.1/"
   xmlns:cc="http://creativecommons.org/ns#"
   xmlns:rdf="http://www.w3.org/1999/02/22-rdf-syntax-ns#"
   xmlns:svg="http://www.w3.org/2000/svg"
   xmlns="http://www.w3.org/2000/svg"
   version="1.1"
   width="30"
   height="30"
   id="svg2">
  <defs
     id="defs4">
    <linearGradient
       id="linearGradient4543">
      <stop
         id="stop4545"
         style="stop-color:#000000;stop-opacity:1"
         offset="0" />
    </linearGradient>
    <linearGradient
       id="linearGradient4537">
      <stop
         id="stop4539"
         style="stop-color:#000000;stop-opacity:1"
         offset="0" />
    </linearGradient>
  </defs>
  <metadata
     id="metadata7">
    <rdf:RDF>
      <cc:Work
         rdf:about="">
        <dc:format>image/svg+xml</dc:format>
        <dc:type
           rdf:resource="http://purl.org/dc/dcmitype/StillImage" />
        <dc:title></dc:title>
      </cc:Work>
    </rdf:RDF>
  </metadata>
  <g
     transform="translate(0,-1022.3622)"
     id="layer1">
    <g
       id="g3794">
      <path
         d="m 10.808219,17.424658 a 3.8630137,3.8630137 0 1 1 -7.7260271,0 3.8630137,3.8630137 0 1 1 7.7260271,0 z"
         transform="matrix(0.82938921,0,0,0.82938921,17.314911,1026.82)"
         id="path3977"
         style="fill:none;stroke:#000000;stroke-width:1.89898777;stroke-linecap:round;stroke-linejoin:miter;stroke-miterlimit:4;stroke-opacity:1;stroke-dasharray:none" />
      <path
         d="m 10.145949,1037.5205 c -0.07311,0.089 1.651596,3.8966 1.651596,3.8966 l -4.8095328,-0.058 z"
         id="rect3979"
         style="fill:none;stroke:#000000;stroke-width:1.29999995;stroke-linecap:round;stroke-linejoin:round;stroke-miterlimit:4;stroke-opacity:1;stroke-dasharray:none" />
      <path
         d="m 23.135798,1041.5269 -5.697139,-9.6121 -1.741932,-0.3816"
         id="path3988"
         style="fill:none;stroke:#000000;stroke-width:1.29999995;stroke-linecap:round;stroke-linejoin:round;stroke-miterlimit:4;stroke-opacity:1;stroke-dasharray:none" />
      <path
         d="m 10.808219,17.424658 a 3.8630137,3.8630137 0 1 1 -7.7260271,0 3.8630137,3.8630137 0 1 1 7.7260271,0 z"
         transform="matrix(0.82938921,0,0,0.82938921,1.314911,1026.82)"
         id="path3786"
         style="fill:none;stroke:#000000;stroke-width:1.89898777;stroke-linecap:round;stroke-linejoin:miter;stroke-miterlimit:4;stroke-opacity:1;stroke-dasharray:none" />
      <path
         d="m 4.0092969,1038.1263 c -0.1172005,-1.1404 4.185067,-1.2783 4.185067,-1.2783 -3.2621679,-1.9862 3.8402941,0.024 4.2424461,-0.4357 2.400473,-2.7461 5.404198,-2.5276 5.404198,-2.5276 0.703636,-1.4767 3.486709,-1.5689 3.486709,-1.5689 0.0025,-8e-4 -0.02905,1.8317 -0.02905,1.8317 -2.685897,-0.04 -1.897427,-0.6118 -4.270773,7.4099 -0.195305,0.6601 -5.232422,0.1163 -5.232422,0.1163 -2.1680285,-5.4553 -7.7861751,-3.5474 -7.7861751,-3.5474 z"
         id="rect3791"
         style="fill:#000000;fill-opacity:1;fill-rule:nonzero;stroke:#000000;stroke-width:1.29999995;stroke-linecap:round;stroke-linejoin:round;stroke-miterlimit:4;stroke-opacity:1" />
    </g>
  </g>
</svg>
