<?xml version="1.0" encoding="UTF-8" standalone="no"?>
<!-- Created with Inkscape (http://www.inkscape.org/) -->

<svg
   xmlns:osb="http://www.openswatchbook.org/uri/2009/osb"
   xmlns:dc="http://purl.org/dc/elements/1.1/"
   xmlns:cc="http://creativecommons.org/ns#"
   xmlns:rdf="http://www.w3.org/1999/02/22-rdf-syntax-ns#"
   xmlns:svg="http://www.w3.org/2000/svg"
   xmlns="http://www.w3.org/2000/svg"
   xmlns:sodipodi="http://sodipodi.sourceforge.net/DTD/sodipodi-0.dtd"
   xmlns:inkscape="http://www.inkscape.org/namespaces/inkscape"
   width="30"
   height="30"
   id="svg2"
   version="1.1"
   inkscape:version="0.48.5 r10040"
   sodipodi:docname="pedestrian-icon.svg">
  <defs
     id="defs4">
    <linearGradient
       id="linearGradient4543"
       osb:paint="solid">
      <stop
         style="stop-color:#000000;stop-opacity:1;"
         offset="0"
         id="stop4545" />
    </linearGradient>
    <linearGradient
       id="linearGradient4537"
       osb:paint="solid">
      <stop
         style="stop-color:#000000;stop-opacity:1;"
         offset="0"
         id="stop4539" />
    </linearGradient>
    <clipPath
       clipPathUnits="userSpaceOnUse"
       id="clipPath3955">
      <path
         style="fill:none;stroke:#000000;stroke-width:1px;stroke-linecap:round;stroke-linejoin:round;stroke-opacity:1"
         d="m 13.068049,11.8002 c 0,0 -1.667464,0.6518 -1.819979,1.4023 -0.301588,1.4841 -0.66935,2.5352 -0.829512,3.2577 -0.125326,0.5653 -0.5978446,0.6746 -0.948584,0.645 -0.5272373,-0.044 -0.7977494,-0.4739 -0.7201057,-0.9855 0.1163416,-0.7664 0.2933536,-1.9908 0.8572365,-3.9018 0.5844192,-1.9806 2.2403482,-2.7226 3.8189732,-3.3118 0.717449,-0.2677 1.542002,-0.1259 2.297351,0 2.202311,0.3674 1.59449,1.8016 3.030008,4.3241 0.322943,0.5675 1.490812,1.0447 2.267919,1.3462 0.777107,0.3016 0.915712,0.8416 0.754486,1.2146 -0.161227,0.3729 -0.358195,0.8682 -1.400933,0.553 -1.042739,-0.3152 -2.931246,-1.4409 -2.931246,-1.4409 l -1.093683,-0.9846 -0.656386,2.7151 3.773416,8.351 c 0.218005,0.4825 0.16921,0.9151 -0.317955,1.2612 -0.487165,0.3461 -1.202297,0.2182 -1.517382,-0.3682 l -3.459702,-6.4394 -1.402279,3.1327 c 0,0 -2.669333,4.7828 -4.177002,3.6749 -1.5076686,-1.1078 1.681989,-3.17 2.357023,-4.8982 0.561887,-1.4384 1.402279,-4.4156 1.402279,-4.4156 z"
         id="path3957"
         inkscape:connector-curvature="0" />
    </clipPath>
  </defs>
  <sodipodi:namedview
     id="base"
     pagecolor="#ffffff"
     bordercolor="#666666"
     borderopacity="1.0"
     inkscape:pageopacity="0.40784314"
     inkscape:pageshadow="2"
     inkscape:zoom="16.994133"
     inkscape:cx="11.987791"
     inkscape:cy="17.078637"
     inkscape:document-units="px"
     inkscape:current-layer="layer1"
     showgrid="false"
     inkscape:snap-page="true"
     showguides="true"
     inkscape:guide-bbox="true"
     inkscape:window-width="1419"
     inkscape:window-height="928"
     inkscape:window-x="73"
     inkscape:window-y="17"
     inkscape:window-maximized="0"
     inkscape:snap-from-guide="false">
    <sodipodi:guide
       orientation="0,1"
       position="15.564195,1.2651425"
       id="guide2985" />
    <sodipodi:guide
       orientation="0,1"
       position="29.2827,33.586498"
       id="guide2987" />
    <sodipodi:guide
       orientation="1,0"
       position="6,27.606"
       id="guide2989" />
    <sodipodi:guide
       orientation="1,0"
       position="24.09154,18.016644"
       id="guide2991" />
  </sodipodi:namedview>
  <metadata
     id="metadata7">
    <rdf:RDF>
      <cc:Work
         rdf:about="">
        <dc:format>image/svg+xml</dc:format>
        <dc:type
           rdf:resource="http://purl.org/dc/dcmitype/StillImage" />
        <dc:title />
      </cc:Work>
    </rdf:RDF>
  </metadata>
  <g
     inkscape:label="Layer 1"
     inkscape:groupmode="layer"
     id="layer1"
     transform="translate(0,-1022.3622)">
    <g
       id="g3831"
       transform="translate(-0.26100908,0.07115377)">
      <path
         sodipodi:type="arc"
         style="fill:none;stroke:#000000;stroke-width:1.76241124;stroke-miterlimit:4;stroke-opacity:1;stroke-dasharray:none"
         id="path3856"
         sodipodi:cx="6.9452057"
         sodipodi:cy="17.424658"
         sodipodi:rx="3.8630137"
         sodipodi:ry="3.8630137"
         d="m 10.808219,17.424658 c 0,2.133483 -1.7295297,3.863014 -3.8630133,3.863014 -2.1334836,0 -3.8630138,-1.729531 -3.8630138,-3.863014 0,-2.133484 1.7295302,-3.863014 3.8630138,-3.863014 2.1334836,0 3.8630133,1.72953 3.8630133,3.863014 z"
         transform="matrix(-0.56740447,0,0,0.56740447,19.941781,1017.9561)" />
      <path
         sodipodi:nodetypes="cczcccccczcccczccccczcccccc"
         transform="translate(0,1022.3622)"
         inkscape:connector-curvature="0"
         id="path3829"
         d="m 9.5700416,12.108183 c -0.4834927,2.294756 -0.7905686,4.285714 -0.7905686,4.285714 0,0 -0.1849485,0.881687 0.5409153,1.12344 0.7258637,0.241753 1.0402217,-0.540915 1.0402217,-0.540915 l 0.832178,-3.661582 1.789181,-1.373092 -0.748959,4.993065 -1.206658,4.327323 -2.7045767,3.869625 c 0,0 -0.3577864,0.688177 0.2496533,1.206658 0.6074397,0.518481 1.2482663,0 1.2482663,0 l 3.0790571,-3.828017 1.289875,-2.95423 4.45215,6.449376 c 0,0 0.65395,0.868294 1.45631,0.332871 0.80236,-0.535423 0.393806,-1.441392 0.393806,-1.441392 l -4.804347,-8.045432 0.707351,-3.32871 0.665742,1.12344 3.869626,1.664355 c 0,0 0.909382,0.461378 1.279473,-0.275659 0.37009,-0.737038 -0.447295,-1.139043 -0.447295,-1.139043 -0.973617,-0.382757 -3.411928,-1.581138 -3.411928,-1.581138 l -1.24531,-3.221118 c 0,0 -0.217751,-1.0004768 -1.500876,-1.2726402 -0.717692,-0.076408 -1.8724,0 -1.8724,0 -0.885278,0.295912 -3.176687,2.2942322 -4.1608874,3.2871012 z"
         style="fill:none;stroke:#000000;stroke-width:1px;stroke-linecap:butt;stroke-linejoin:round;stroke-opacity:1" />
    </g>
  </g>
</svg>
