<?xml version="1.0" encoding="UTF-8" standalone="no"?>
<!-- Created with Inkscape (http://www.inkscape.org/) -->

<svg
   xmlns:osb="http://www.openswatchbook.org/uri/2009/osb"
   xmlns:dc="http://purl.org/dc/elements/1.1/"
   xmlns:cc="http://creativecommons.org/ns#"
   xmlns:rdf="http://www.w3.org/1999/02/22-rdf-syntax-ns#"
   xmlns:svg="http://www.w3.org/2000/svg"
   xmlns="http://www.w3.org/2000/svg"
   xmlns:sodipodi="http://sodipodi.sourceforge.net/DTD/sodipodi-0.dtd"
   xmlns:inkscape="http://www.inkscape.org/namespaces/inkscape"
   width="30"
   height="30"
   id="svg2"
   version="1.1"
   inkscape:version="0.48.5 r10040"
   sodipodi:docname="wheelchair-icon.svg">
  <defs
     id="defs4">
    <linearGradient
       id="linearGradient4543"
       osb:paint="solid">
      <stop
         style="stop-color:#000000;stop-opacity:1;"
         offset="0"
         id="stop4545" />
    </linearGradient>
    <linearGradient
       id="linearGradient4537"
       osb:paint="solid">
      <stop
         style="stop-color:#000000;stop-opacity:1;"
         offset="0"
         id="stop4539" />
    </linearGradient>
    <clipPath
       clipPathUnits="userSpaceOnUse"
       id="clipPath3955">
      <path
         style="fill:none;stroke:#000000;stroke-width:1px;stroke-linecap:round;stroke-linejoin:round;stroke-opacity:1"
         d="m 13.068049,11.8002 c 0,0 -1.667464,0.6518 -1.819979,1.4023 -0.301588,1.4841 -0.66935,2.5352 -0.829512,3.2577 -0.125326,0.5653 -0.5978446,0.6746 -0.948584,0.645 -0.5272373,-0.044 -0.7977494,-0.4739 -0.7201057,-0.9855 0.1163416,-0.7664 0.2933536,-1.9908 0.8572365,-3.9018 0.5844192,-1.9806 2.2403482,-2.7226 3.8189732,-3.3118 0.717449,-0.2677 1.542002,-0.1259 2.297351,0 2.202311,0.3674 1.59449,1.8016 3.030008,4.3241 0.322943,0.5675 1.490812,1.0447 2.267919,1.3462 0.777107,0.3016 0.915712,0.8416 0.754486,1.2146 -0.161227,0.3729 -0.358195,0.8682 -1.400933,0.553 -1.042739,-0.3152 -2.931246,-1.4409 -2.931246,-1.4409 l -1.093683,-0.9846 -0.656386,2.7151 3.773416,8.351 c 0.218005,0.4825 0.16921,0.9151 -0.317955,1.2612 -0.487165,0.3461 -1.202297,0.2182 -1.517382,-0.3682 l -3.459702,-6.4394 -1.402279,3.1327 c 0,0 -2.669333,4.7828 -4.177002,3.6749 -1.5076686,-1.1078 1.681989,-3.17 2.357023,-4.8982 0.561887,-1.4384 1.402279,-4.4156 1.402279,-4.4156 z"
         id="path3957"
         inkscape:connector-curvature="0" />
    </clipPath>
  </defs>
  <sodipodi:namedview
     id="base"
     pagecolor="#ffffff"
     bordercolor="#666666"
     borderopacity="1.0"
     inkscape:pageopacity="0.40784314"
     inkscape:pageshadow="2"
     inkscape:zoom="11.85"
     inkscape:cx="9.0457006"
     inkscape:cy="21.367676"
     inkscape:document-units="px"
     inkscape:current-layer="layer1"
     showgrid="false"
     inkscape:snap-page="true"
     showguides="true"
     inkscape:guide-bbox="true"
     inkscape:window-width="1382"
     inkscape:window-height="918"
     inkscape:window-x="73"
     inkscape:window-y="17"
     inkscape:window-maximized="0"
     inkscape:snap-from-guide="false">
    <sodipodi:guide
       orientation="0,1"
       position="5.0632911,0"
       id="guide2985" />
    <sodipodi:guide
       orientation="0,1"
       position="29.2827,33.586498"
       id="guide2987" />
    <sodipodi:guide
       orientation="1,0"
       position="-5.0632911,28.438819"
       id="guide2989" />
    <sodipodi:guide
       orientation="1,0"
       position="32.362869,22.911392"
       id="guide2991" />
  </sodipodi:namedview>
  <metadata
     id="metadata7">
    <rdf:RDF>
      <cc:Work
         rdf:about="">
        <dc:format>image/svg+xml</dc:format>
        <dc:type
           rdf:resource="http://purl.org/dc/dcmitype/StillImage" />
        <dc:title></dc:title>
      </cc:Work>
    </rdf:RDF>
  </metadata>
  <g
     inkscape:label="Layer 1"
     inkscape:groupmode="layer"
     id="layer1"
     transform="translate(0,-1022.3622)">
    <g
       id="g5239"
       transform="translate(-0.50553815,0.85709648)">
      <g
         transform="matrix(0.95,0,0,0.95,-0.0308468,51.206875)"
         id="g3979">
        <path
           transform="matrix(-0.56740447,0,0,0.56740447,20.397085,1017.8877)"
           d="m 10.808219,17.424658 c 0,2.133483 -1.7295297,3.863014 -3.8630133,3.863014 -2.1334836,0 -3.8630138,-1.729531 -3.8630138,-3.863014 0,-2.133484 1.7295302,-3.863014 3.8630138,-3.863014 2.1334836,0 3.8630133,1.72953 3.8630133,3.863014 z"
           sodipodi:ry="3.8630137"
           sodipodi:rx="3.8630137"
           sodipodi:cy="17.424658"
           sodipodi:cx="6.9452057"
           id="path3856"
           style="fill:#000000;fill-opacity:1;stroke:none"
           sodipodi:type="arc" />
      </g>
      <path
         sodipodi:nodetypes="ccc"
         transform="translate(0,1022.3622)"
         inkscape:connector-curvature="0"
         id="path5020"
         d="M 6.5907173,12.705885 9.8031059,10.207012 15.018018,8.5276327"
         style="fill:none;stroke:#000000;stroke-width:1.75;stroke-linecap:round;stroke-linejoin:round;stroke-miterlimit:4;stroke-opacity:1;stroke-dasharray:none" />
      <path
         style="fill:none;stroke:#000000;stroke-width:2;stroke-linecap:round;stroke-linejoin:round;stroke-miterlimit:4;stroke-opacity:1;stroke-dasharray:none"
         d="m 19.334449,1038.3088 3.434638,5.8774 1.526272,-0.9579"
         id="path5022"
         inkscape:connector-curvature="0"
         sodipodi:nodetypes="ccc" />
      <path
         sodipodi:nodetypes="cc"
         inkscape:connector-curvature="0"
         id="path5024"
         d="m 13.248945,1036.7081 1.097047,-4.8523"
         style="fill:none;stroke:#000000;stroke-width:4;stroke-linecap:round;stroke-linejoin:round;stroke-miterlimit:4;stroke-opacity:1;stroke-dasharray:none" />
      <path
         sodipodi:nodetypes="cc"
         transform="translate(0,1022.3622)"
         inkscape:connector-curvature="0"
         id="path5026"
         d="m 18.691982,15.949368 -5.738396,-1.22363"
         style="fill:none;stroke:#000000;stroke-width:3;stroke-linecap:round;stroke-linejoin:round;stroke-miterlimit:4;stroke-opacity:1;stroke-dasharray:none;marker-start:none" />
      <path
         inkscape:connector-curvature="0"
         id="path5210"
         d="m 18.302035,1041.5361 c -0.286755,2.4875 -2.257333,4.5384 -4.851782,4.827 -3.016214,0.3358 -5.7334425,-1.8372 -6.0691019,-4.8535 -0.2215468,-1.9908 0.6498414,-3.8514 2.1352424,-4.9829"
         style="fill:none;stroke:#000000;stroke-width:2.20499992;stroke-linecap:butt;stroke-linejoin:round;stroke-miterlimit:4;stroke-opacity:1" />
    </g>
  </g>
</svg>
