<?xml version="1.0" encoding="UTF-8" standalone="no"?>
<svg
   xmlns:dc="http://purl.org/dc/elements/1.1/"
   xmlns:cc="http://creativecommons.org/ns#"
   xmlns:rdf="http://www.w3.org/1999/02/22-rdf-syntax-ns#"
   xmlns:svg="http://www.w3.org/2000/svg"
   xmlns="http://www.w3.org/2000/svg"
   xmlns:sodipodi="http://sodipodi.sourceforge.net/DTD/sodipodi-0.dtd"
   xmlns:inkscape="http://www.inkscape.org/namespaces/inkscape"
   id="svg3081"
   version="1.1"
   xml:space="preserve"
   height="53"
   width="53"
   enable-background="new 0 0 48 48"
   viewBox="0 0 53 53"
   inkscape:version="0.48.4 r9939"
   sodipodi:docname="limit_50.svg"><defs
     id="defs8260" /><sodipodi:namedview
     pagecolor="#ffffff"
     bordercolor="#666666"
     borderopacity="1"
     objecttolerance="10"
     gridtolerance="10"
     guidetolerance="10"
     inkscape:pageopacity="0"
     inkscape:pageshadow="2"
     inkscape:window-width="732"
     inkscape:window-height="884"
     id="namedview8258"
     showgrid="false"
     inkscape:zoom="4.4528302"
     inkscape:cx="26.5"
     inkscape:cy="26.5"
     inkscape:window-x="67"
     inkscape:window-y="24"
     inkscape:window-maximized="0"
     inkscape:current-layer="g3084" /><metadata
     id="metadata3146"><rdf:RDF><cc:Work
         rdf:about=""><dc:format>image/svg+xml</dc:format><dc:type
           rdf:resource="http://purl.org/dc/dcmitype/StillImage" /><dc:title /></cc:Work></rdf:RDF></metadata><g
     id="g3084"
     transform="translate(2.5,2.5)"><g
       id="g3086"
       stroke="#F00"
       stroke-dasharray="none"
       stroke-miterlimit="4"
       stroke-width="5"
       fill="#F00"
       style="fill:#ee1c21;fill-opacity:1;stroke:#ee1c21;stroke-opacity:1"><path
         id="path3088"
         d="M24,48c-13.233,0-24-10.767-24-24s10.767-24,24-24,24,10.767,24,24-10.767,24-24,24zm0-46c-12.131,0-22,9.869-22,22s9.869,22,22,22,22-9.869,22-22-9.869-22-22-22z"
         stroke="#F00"
         stroke-dasharray="none"
         stroke-miterlimit="4"
         stroke-width="5"
         fill="#F00"
         style="fill:#ee1c21;fill-opacity:1;stroke:#ee1c21;stroke-opacity:1" /></g><g
       id="text4041-0-0"
       style="letter-spacing:0px;word-spacing:0px;"
       font-weight="normal"
       transform="scale(0.91922301,1.0878753)"
       font-size="31.91279984px"
       font-style="normal"
       font-family="Sans"
       line-height="125%"
       fill="#000"><path
         id="path4262"
         style="text-align:start;"
         d="m24.181,23.878c-0.000016,2.1275-0.8723,4.0529-2.6168,5.7762-1.7233,1.7233-3.9359,2.5849-6.6379,2.5849-1.8935-0.000001-3.6381-0.40423-5.2337-1.2127l1.9477-3.063c0.99993,0.51061,2.1062,0.76591,3.3189,0.76591,1.5744,0.04255,2.9466-0.46805,4.1168-1.5318,1.1914-1.0638,1.7871-2.1913,1.7871-3.3828,0.02126-1.0212-0.32978-1.8828-1.0531-2.5849-0.70209-0.70207-1.5956-1.0531-2.6807-1.0531-1.3829-0.02126-2.6169,0.60635-3.7019,1.8829l-3.0317-1.1489,0.35104-10.435h12.286v3.3828h-8.9994l-0.12765,3.67c1.0425-0.55314,2.1062-0.82972,3.1913-0.82973,2.0211,0.04257,3.7019,0.73401,5.0422,2.0743,1.3616,1.3404,2.0424,3.0424,2.0424,5.106" /><path
         id="path4264"
         style="text-align:start;"
         d="m34.798,32.239c-2.5105-0.000001-4.4465-0.94675-5.8081-2.8402-1.3403-1.9148-2.0105-4.6593-2.0105-8.2335-0.000002-3.4891,0.67017-6.2017,2.0105-8.1378,1.3616-1.936,3.2976-2.904,5.8081-2.9041,2.553,0.000021,4.4891,0.96804,5.8081,2.9041,1.3403,1.9361,2.0105,4.6486,2.0105,8.1378-0.000017,3.5742-0.67018,6.3187-2.0105,8.2335-1.3191,1.8935-3.2551,2.8402-5.8081,2.8402m0-18.733c-1.4893,0.000019-2.5743,0.71274-3.2551,2.1382-0.68081,1.4042-1.0319,3.2232-1.0531,5.4571-0.000005,2.5105,0.32976,4.4146,0.9893,5.7124,0.6808,1.2978,1.7871,1.936,3.3189,1.9148,1.6169-0.04255,2.7339-0.71272,3.3508-2.0105,0.61697-1.2978,0.94673-3.17,0.9893-5.6167-0.04256-2.3828-0.40424-4.2231-1.085-5.5209-0.65954-1.2978-1.7446-1.9892-3.2551-2.0743" /></g></g></svg>