<?xml version="1.0" encoding="UTF-8" standalone="no"?>
<svg
   xmlns:dc="http://purl.org/dc/elements/1.1/"
   xmlns:cc="http://creativecommons.org/ns#"
   xmlns:rdf="http://www.w3.org/1999/02/22-rdf-syntax-ns#"
   xmlns:svg="http://www.w3.org/2000/svg"
   xmlns="http://www.w3.org/2000/svg"
   xmlns:sodipodi="http://sodipodi.sourceforge.net/DTD/sodipodi-0.dtd"
   xmlns:inkscape="http://www.inkscape.org/namespaces/inkscape"
   id="svg3081"
   version="1.1"
   xml:space="preserve"
   height="53"
   width="53"
   enable-background="new 0 0 48 48"
   viewBox="0 0 53 53"
   inkscape:version="0.48.4 r9939"
   sodipodi:docname="limit_20.svg"><defs
     id="defs6063" /><sodipodi:namedview
     pagecolor="#ffffff"
     bordercolor="#666666"
     borderopacity="1"
     objecttolerance="10"
     gridtolerance="10"
     guidetolerance="10"
     inkscape:pageopacity="0"
     inkscape:pageshadow="2"
     inkscape:window-width="732"
     inkscape:window-height="856"
     id="namedview6061"
     showgrid="false"
     inkscape:zoom="4.4528302"
     inkscape:cx="-2.470339"
     inkscape:cy="26.5"
     inkscape:window-x="67"
     inkscape:window-y="24"
     inkscape:window-maximized="0"
     inkscape:current-layer="g3084" /><metadata
     id="metadata3146"><rdf:RDF><cc:Work
         rdf:about=""><dc:format>image/svg+xml</dc:format><dc:type
           rdf:resource="http://purl.org/dc/dcmitype/StillImage" /><dc:title /></cc:Work></rdf:RDF></metadata><g
     id="g3084"
     transform="translate(2.5,2.5)"><g
       id="g3086"
       stroke="#F00"
       stroke-dasharray="none"
       stroke-miterlimit="4"
       stroke-width="5"
       fill="#F00"
       style="fill:#ee1c21;fill-opacity:1;stroke:#ee1c21;stroke-opacity:1"><path
         id="path3088"
         d="M24,48c-13.233,0-24-10.767-24-24s10.767-24,24-24,24,10.767,24,24-10.767,24-24,24zm0-46c-12.131,0-22,9.869-22,22s9.869,22,22,22,22-9.869,22-22-9.869-22-22-22z"
         stroke="#F00"
         stroke-dasharray="none"
         stroke-miterlimit="4"
         stroke-width="5"
         fill="#F00"
         style="fill:#ee1c21;fill-opacity:1;stroke:#ee1c21;stroke-opacity:1" /></g><g
       id="text4041"
       style="letter-spacing:0px;word-spacing:0px;"
       font-weight="normal"
       transform="scale(0.91922301,1.0878753)"
       font-size="31.91279984px"
       font-style="normal"
       font-family="Sans"
       line-height="125%"
       fill="#000"><path
         id="path4067"
         style="text-align:start;"
         d="m23.998,32.083-14.552,0c0.14892-5.0848,2.7019-9.0313,7.6591-11.84,2.4254-1.2765,3.5955-2.4785,3.5104-3.6061-0.000013-0.80844-0.35105-1.4786-1.0531-2.0105-0.68082-0.53186-1.5744-0.81908-2.6807-0.86164-1.9999,0.14894-3.3508,1.1595-4.0529,3.0317l-3.3827-0.988c0.55315-1.5318,1.468-2.8189,2.7445-3.8614,1.2978-1.0637,2.8083-1.5956,4.5316-1.5956,2.0211,0.000022,3.7338,0.617,5.138,1.8509,1.4254,1.234,2.1381,2.6701,2.1382,4.3082-0.06384,2.702-1.702,4.8827-4.9146,6.5421-3.0424,1.7658-4.8614,3.6274-5.4571,5.5847h10.372v3.4466" /><path
         id="path4069"
         style="text-align:start;"
         d="m35.1,32.466c-2.5105,0-4.4465-0.94675-5.8081-2.8402-1.3403-1.9148-2.0105-4.6593-2.0105-8.2335-0.000001-3.4891,0.67017-6.2017,2.0105-8.1378,1.3616-1.936,3.2976-2.904,5.8081-2.9041,2.553,0.000022,4.4891,0.96804,5.8081,2.9041,1.3403,1.9361,2.0105,4.6486,2.0105,8.1378-0.000017,3.5742-0.67018,6.3187-2.0105,8.2335-1.3191,1.8935-3.2551,2.8402-5.8081,2.8402m0-18.733c-1.4893,0.000018-2.5743,0.71274-3.2551,2.1382-0.68081,1.4042-1.0319,3.2232-1.0531,5.4571-0.000005,2.5105,0.32976,4.4146,0.9893,5.7124,0.6808,1.2978,1.7871,1.936,3.3189,1.9148,1.6169-0.04255,2.7339-0.71272,3.3508-2.0105,0.61697-1.2978,0.94673-3.17,0.9893-5.6167-0.04256-2.3828-0.40424-4.2231-1.085-5.5209-0.65954-1.2978-1.7446-1.9892-3.2551-2.0743" /></g></g></svg>