<?xml version="1.0" encoding="UTF-8" standalone="no"?>
<svg
   xmlns:dc="http://purl.org/dc/elements/1.1/"
   xmlns:cc="http://creativecommons.org/ns#"
   xmlns:rdf="http://www.w3.org/1999/02/22-rdf-syntax-ns#"
   xmlns:svg="http://www.w3.org/2000/svg"
   xmlns="http://www.w3.org/2000/svg"
   xmlns:sodipodi="http://sodipodi.sourceforge.net/DTD/sodipodi-0.dtd"
   xmlns:inkscape="http://www.inkscape.org/namespaces/inkscape"
   enable-background="new 0 0 48 48"
   height="53"
   version="1.1"
   viewBox="0 0 53 53"
   width="53"
   xml:space="preserve"
   id="svg3081"
   inkscape:version="0.48.4 r9939"
   sodipodi:docname="limit_lsz.svg"><metadata
     id="metadata3146"><rdf:RDF><cc:Work
         rdf:about=""><dc:format>image/svg+xml</dc:format><dc:type
           rdf:resource="http://purl.org/dc/dcmitype/StillImage" /><dc:title></dc:title></cc:Work></rdf:RDF></metadata><defs
     id="defs3144" /><sodipodi:namedview
     pagecolor="#ffffff"
     bordercolor="#666666"
     borderopacity="1"
     objecttolerance="10"
     gridtolerance="10"
     guidetolerance="10"
     inkscape:pageopacity="0"
     inkscape:pageshadow="2"
     inkscape:window-width="1853"
     inkscape:window-height="1056"
     id="namedview3142"
     showgrid="false"
     showguides="true"
     inkscape:guide-bbox="true"
     fit-margin-top="0"
     fit-margin-left="0"
     fit-margin-right="0"
     fit-margin-bottom="0"
     inkscape:zoom="9.8333333"
     inkscape:cx="8.7033898"
     inkscape:cy="29.205903"
     inkscape:window-x="67"
     inkscape:window-y="24"
     inkscape:window-maximized="1"
     inkscape:current-layer="g3084" /><g
     id="g3084"
     transform="translate(2.5,2.5)"><g
       id="g3086"
       style="fill:#ee1c21;fill-opacity:1;stroke:#ee1c21;stroke-width:5;stroke-miterlimit:4;stroke-opacity:1;stroke-dasharray:none"><path
         inkscape:connector-curvature="0"
         id="path3088"
         d="M 24,48 C 10.767,48 0,37.233 0,24 0,10.767 10.767,0 24,0 37.233,0 48,10.767 48,24 48,37.233 37.233,48 24,48 z M 24,2 C 11.869,2 2,11.869 2,24 2,36.131 11.869,46 24,46 36.131,46 46,36.131 46,24 46,11.869 36.131,2 24,2 z"
         style="fill:#ee1c21;fill-opacity:1;stroke:#ee1c21;stroke-width:5;stroke-miterlimit:4;stroke-opacity:1;stroke-dasharray:none" /></g><g
       transform="scale(0.92410807,1.0821245)"
       style="font-size:27.74290276px;font-style:normal;font-weight:normal;line-height:125%;letter-spacing:0px;word-spacing:0px;fill:#000000;fill-opacity:1;stroke:none;font-family:Sans"
       id="text4041-0-8"><path
         d="m 17.995081,31.419437 -9.4603302,0 0,-18.587744 2.6633192,0 0,15.979912 6.797011,0 0,2.607832"
         style="font-variant:normal;font-stretch:normal;text-align:start;line-height:125%;writing-mode:lr-tb;text-anchor:start;font-family:Highway Gothic Narrow;-inkscape-font-specification:Highway Gothic Narrow"
         id="path4639" /><path
         d="m 31.036412,26.203772 c -1.1e-5,1.46113 -0.453145,2.755797 -1.359402,3.884006 -0.906277,1.109716 -2.154707,1.664574 -3.745292,1.664574 -1.461131,0 -2.700313,-0.564105 -3.717549,-1.692317 -0.998746,-1.146704 -1.498118,-2.515352 -1.498117,-4.105949 l 2.552347,0 c -3e-6,0.980253 0.240435,1.757054 0.721316,2.330403 0.499367,0.573356 1.128206,0.860033 1.886517,0.86003 0.702813,3e-6 1.313157,-0.277426 1.831032,-0.832287 0.517859,-0.573349 0.767545,-1.239178 0.749058,-1.997489 -0.0185,-0.610338 -0.249695,-1.248424 -0.693572,-1.91426 -0.425399,-0.684317 -1.220695,-1.396384 -2.38589,-2.136204 -1.331664,-0.850772 -2.302664,-1.692306 -2.913005,-2.524604 -0.610346,-0.850769 -0.915518,-1.646065 -0.915516,-2.385889 -0.0185,-1.331644 0.406894,-2.459854 1.276174,-3.384634 0.869273,-0.943241 1.978988,-1.424117 3.329148,-1.442631 1.424128,1.9e-5 2.589329,0.471647 3.495606,1.414888 0.924752,0.92478 1.387134,2.05299 1.387145,3.384634 l -2.718804,0 c 0.01849,-0.721301 -0.212704,-1.285406 -0.693573,-1.692317 -0.462389,-0.40688 -0.952513,-0.591832 -1.470374,-0.554858 -0.61035,0.03701 -1.081978,0.268197 -1.414888,0.693572 -0.332919,0.406911 -0.490129,0.906283 -0.471629,1.498117 0.01849,0.388414 0.184948,0.767567 0.499372,1.137459 0.314414,0.369918 0.998738,0.924776 2.052975,1.664574 1.479613,0.998755 2.54309,1.979003 3.190434,2.940748 0.665818,0.961761 1.00798,2.025238 1.026487,3.190434"
         style="font-variant:normal;font-stretch:normal;text-align:start;line-height:125%;writing-mode:lr-tb;text-anchor:start;font-family:Highway Gothic Narrow;-inkscape-font-specification:Highway Gothic Narrow"
         id="path4641" /><path
         d="m 43.633857,31.419437 -10.237131,0 0,-2.496861 7.185412,-13.538536 -6.464097,0 0,-2.607833 9.515816,0 0,2.524604 -7.296383,13.566279 7.296383,0 0,2.552347"
         style="font-variant:normal;font-stretch:normal;text-align:start;line-height:125%;writing-mode:lr-tb;text-anchor:start;font-family:Highway Gothic Narrow;-inkscape-font-specification:Highway Gothic Narrow"
         id="path4643" /></g></g></svg>