<?xml version="1.0" encoding="UTF-8" standalone="no"?>
<svg
   xmlns:dc="http://purl.org/dc/elements/1.1/"
   xmlns:cc="http://creativecommons.org/ns#"
   xmlns:rdf="http://www.w3.org/1999/02/22-rdf-syntax-ns#"
   xmlns:svg="http://www.w3.org/2000/svg"
   xmlns="http://www.w3.org/2000/svg"
   xmlns:sodipodi="http://sodipodi.sourceforge.net/DTD/sodipodi-0.dtd"
   xmlns:inkscape="http://www.inkscape.org/namespaces/inkscape"
   id="svg3081"
   version="1.1"
   xml:space="preserve"
   height="53"
   width="53"
   enable-background="new 0 0 48 48"
   viewBox="0 0 53 53"
   inkscape:version="0.48.4 r9939"
   sodipodi:docname="limit_30.svg"><defs
     id="defs6690" /><sodipodi:namedview
     pagecolor="#ffffff"
     bordercolor="#666666"
     borderopacity="1"
     objecttolerance="10"
     gridtolerance="10"
     guidetolerance="10"
     inkscape:pageopacity="0"
     inkscape:pageshadow="2"
     inkscape:window-width="732"
     inkscape:window-height="838"
     id="namedview6688"
     showgrid="false"
     inkscape:zoom="4.4528302"
     inkscape:cx="26.5"
     inkscape:cy="26.5"
     inkscape:window-x="67"
     inkscape:window-y="24"
     inkscape:window-maximized="0"
     inkscape:current-layer="g3084" /><metadata
     id="metadata3146"><rdf:RDF><cc:Work
         rdf:about=""><dc:format>image/svg+xml</dc:format><dc:type
           rdf:resource="http://purl.org/dc/dcmitype/StillImage" /><dc:title /></cc:Work></rdf:RDF></metadata><g
     id="g3084"
     transform="translate(2.5,2.5)"><g
       id="g3086"
       stroke="#F00"
       stroke-dasharray="none"
       stroke-miterlimit="4"
       stroke-width="5"
       fill="#F00"
       style="fill:#ee1c21;fill-opacity:1;stroke:#ee1c21;stroke-opacity:1"><path
         id="path3088"
         d="M24,48c-13.233,0-24-10.767-24-24s10.767-24,24-24,24,10.767,24,24-10.767,24-24,24zm0-46c-12.131,0-22,9.869-22,22s9.869,22,22,22,22-9.869,22-22-9.869-22-22-22z"
         stroke="#F00"
         stroke-dasharray="none"
         stroke-miterlimit="4"
         stroke-width="5"
         fill="#F00"
         style="fill:#ee1c21;fill-opacity:1;stroke:#ee1c21;stroke-opacity:1" /></g><g
       id="text4041-0-6"
       style="letter-spacing:0px;word-spacing:0px;"
       font-weight="normal"
       transform="scale(0.91922301,1.0878753)"
       font-size="31.91279984px"
       font-style="normal"
       font-family="Sans"
       line-height="125%"
       fill="#000"><path
         id="path4143"
         style="text-align:start;"
         d="m24.357,25.068c-0.000017,2.1914-0.69146,3.9785-2.0743,5.3614-1.3616,1.3829-3.053,2.085-5.0741,2.1062-1.8509-0.02128-3.4147-0.46805-4.6912-1.3403-1.277-0.872-2.256-2.181-2.9366-3.925l3.4785-1.1169c0.91483,1.9573,2.2764,2.9253,4.0848,2.9041,1.1276,0.000003,2.0424-0.35104,2.7445-1.0531,0.72334-0.72335,1.085-1.6275,1.085-2.7126-0.02129-1.8722-0.98931-2.9253-2.9041-3.1594h-0.9893v-3.3508h0.9893c1.3829,0.000014,2.0743-0.70207,2.0743-2.1062-0.000012-0.82972-0.29786-1.5105-0.89356-2.0424-0.59572-0.53186-1.3191-0.7978-2.1701-0.79782-1.4254,0.000019-2.553,0.74465-3.3828,2.2339l-3.191-0.99c0.38295-1.2339,1.1701-2.319,2.3615-3.2551,1.2127-0.93609,2.5849-1.4148,4.1168-1.4361,1.8084,0.000022,3.3508,0.63828,4.6274,1.9148,1.2765,1.2553,1.9148,2.7871,1.9148,4.5954,0.02126,1.5106-0.46807,2.67-1.468,3.4785,1.4892,1.0425,2.2552,2.6062,2.2977,4.6912" /><path
         id="path4145"
         style="text-align:start;"
         d="m34.91,32.503c-2.5105,0-4.4465-0.94675-5.8081-2.8402-1.3403-1.9148-2.0105-4.6593-2.0105-8.2335-0.000001-3.4891,0.67017-6.2017,2.0105-8.1378,1.3616-1.936,3.2976-2.904,5.8081-2.9041,2.553,0.000022,4.4891,0.96804,5.8081,2.9041,1.3403,1.9361,2.0105,4.6486,2.0105,8.1378-0.000017,3.5742-0.67018,6.3187-2.0105,8.2335-1.3191,1.8935-3.2551,2.8402-5.8081,2.8402m0-18.733c-1.4893,0.000018-2.5743,0.71274-3.2551,2.1382-0.68081,1.4042-1.0319,3.2232-1.0531,5.4571-0.000005,2.5105,0.32976,4.4146,0.9893,5.7124,0.6808,1.2978,1.7871,1.936,3.3189,1.9148,1.6169-0.04255,2.7339-0.71272,3.3508-2.0105,0.61697-1.2978,0.94673-3.17,0.9893-5.6167-0.04256-2.3828-0.40424-4.2231-1.085-5.5209-0.65954-1.2978-1.7446-1.9892-3.2551-2.0743" /></g></g></svg>