<?xml version="1.0" encoding="UTF-8" standalone="no"?>
<svg
   xmlns:dc="http://purl.org/dc/elements/1.1/"
   xmlns:cc="http://creativecommons.org/ns#"
   xmlns:rdf="http://www.w3.org/1999/02/22-rdf-syntax-ns#"
   xmlns:svg="http://www.w3.org/2000/svg"
   xmlns="http://www.w3.org/2000/svg"
   xmlns:sodipodi="http://sodipodi.sourceforge.net/DTD/sodipodi-0.dtd"
   xmlns:inkscape="http://www.inkscape.org/namespaces/inkscape"
   id="svg3081"
   version="1.1"
   xml:space="preserve"
   height="53"
   width="53"
   enable-background="new 0 0 48 48"
   viewBox="0 0 53 53"
   inkscape:version="0.48.4 r9939"
   sodipodi:docname="limit_80.svg"><defs
     id="defs10318" /><sodipodi:namedview
     pagecolor="#ffffff"
     bordercolor="#666666"
     borderopacity="1"
     objecttolerance="10"
     gridtolerance="10"
     guidetolerance="10"
     inkscape:pageopacity="0"
     inkscape:pageshadow="2"
     inkscape:window-width="1641"
     inkscape:window-height="910"
     id="namedview10316"
     showgrid="false"
     inkscape:zoom="4.4528302"
     inkscape:cx="26.5"
     inkscape:cy="26.5"
     inkscape:window-x="67"
     inkscape:window-y="24"
     inkscape:window-maximized="0"
     inkscape:current-layer="g3084" /><metadata
     id="metadata3146"><rdf:RDF><cc:Work
         rdf:about=""><dc:format>image/svg+xml</dc:format><dc:type
           rdf:resource="http://purl.org/dc/dcmitype/StillImage" /><dc:title /></cc:Work></rdf:RDF></metadata><g
     id="g3084"
     transform="translate(2.5,2.5)"><g
       id="g3086"
       stroke="#F00"
       stroke-dasharray="none"
       stroke-miterlimit="4"
       stroke-width="5"
       fill="#F00"
       style="fill:#ee1c21;fill-opacity:1;stroke:#ee1c21;stroke-opacity:1"><path
         id="path3088"
         d="M24,48c-13.233,0-24-10.767-24-24s10.767-24,24-24,24,10.767,24,24-10.767,24-24,24zm0-46c-12.131,0-22,9.869-22,22s9.869,22,22,22,22-9.869,22-22-9.869-22-22-22z"
         stroke="#F00"
         stroke-dasharray="none"
         stroke-miterlimit="4"
         stroke-width="5"
         fill="#F00"
         style="fill:#ee1c21;fill-opacity:1;stroke:#ee1c21;stroke-opacity:1" /></g><g
       id="text4041-0-68"
       style="letter-spacing:0px;word-spacing:0px;"
       font-weight="normal"
       transform="scale(0.91922301,1.0878753)"
       font-size="31.91279984px"
       font-style="normal"
       font-family="Sans"
       line-height="125%"
       fill="#000"><path
         id="path4429"
         style="text-align:start;"
         d="m24.245,25.027c-0.000016,1.9573-0.72337,3.6487-2.1701,5.0741s-3.1487,2.1382-5.106,2.1382c-1.9573-0.000001-3.6593-0.71272-5.106-2.1382-1.4467-1.4254-2.1701-3.1168-2.1701-5.0741,0.042549-2.1488,0.87228-3.787,2.4892-4.9146-1.0425-1.0212-1.5744-2.3296-1.5956-3.9253-0.000003-1.6594,0.62762-3.0849,1.8829-4.2763,1.2765-1.1914,2.7764-1.7871,4.4997-1.7871,1.7233,0.000022,3.2232,0.60636,4.4997,1.819,1.2978,1.1914,1.9467,2.6062,1.9467,4.2444-0.08512,1.5957-0.7021,2.8934-1.8509,3.8934,1.7233,1.0638,2.6168,2.7126,2.6807,4.9465m-4.2763-8.9037c-0.000012-0.72334-0.29786-1.3297-0.89356-1.819-0.57444-0.48931-1.2765-0.73398-2.1062-0.73399-0.82974,0.000018-1.5425,0.24468-2.1382,0.73399-0.57444,0.48935-0.86165,1.0957-0.86164,1.819-0.000006,0.617,0.28721,1.1595,0.86164,1.6276,0.5957,0.44679,1.3084,0.67018,2.1382,0.67017,0.80845,0.000014,1.5105-0.22338,2.1062-0.67017,0.59569-0.46804,0.89355-1.0106,0.89356-1.6276m0.89356,8.9994c-0.000012-0.89355-0.38297-1.6595-1.1489-2.2977-0.76592-0.63825-1.6808-0.95737-2.7445-0.95738-1.0638,0.00001-1.968,0.31914-2.7126,0.95738-0.74464,0.61699-1.117,1.3829-1.1169,2.2977-0.000005,0.99994,0.37231,1.8616,1.1169,2.5849,0.74462,0.72336,1.6488,1.085,2.7126,1.085,1.085,0.000003,1.9999-0.36168,2.7445-1.085,0.76589-0.72335,1.1488-1.585,1.1489-2.5849" /><path
         id="path4431"
         style="text-align:start;"
         d="m34.798,32.239c-2.5105-0.000001-4.4465-0.94675-5.8081-2.8402-1.3403-1.9148-2.0105-4.6593-2.0105-8.2335-0.000002-3.4891,0.67017-6.2017,2.0105-8.1378,1.3616-1.936,3.2976-2.904,5.8081-2.9041,2.553,0.000022,4.4891,0.96804,5.8081,2.9041,1.3403,1.9361,2.0105,4.6486,2.0105,8.1378-0.000017,3.5742-0.67018,6.3187-2.0105,8.2335-1.3191,1.8935-3.2551,2.8402-5.8081,2.8402m0-18.733c-1.4893,0.000019-2.5743,0.71274-3.2551,2.1382-0.68081,1.4042-1.0319,3.2232-1.0531,5.4571-0.000005,2.5105,0.32976,4.4146,0.9893,5.7124,0.6808,1.2978,1.7871,1.936,3.3189,1.9148,1.6169-0.04255,2.7339-0.71272,3.3508-2.0105,0.61697-1.2978,0.94673-3.17,0.9893-5.6167-0.04256-2.3828-0.40424-4.2231-1.085-5.5209-0.65954-1.2978-1.7446-1.9892-3.2551-2.0743" /></g></g></svg>