<?xml version="1.0" encoding="UTF-8" standalone="no"?>
<svg
   xmlns:dc="http://purl.org/dc/elements/1.1/"
   xmlns:cc="http://creativecommons.org/ns#"
   xmlns:rdf="http://www.w3.org/1999/02/22-rdf-syntax-ns#"
   xmlns:svg="http://www.w3.org/2000/svg"
   xmlns="http://www.w3.org/2000/svg"
   xmlns:sodipodi="http://sodipodi.sourceforge.net/DTD/sodipodi-0.dtd"
   xmlns:inkscape="http://www.inkscape.org/namespaces/inkscape"
   id="svg3081"
   version="1.1"
   xml:space="preserve"
   height="53"
   width="53"
   enable-background="new 0 0 48 48"
   viewBox="0 0 53 53"
   inkscape:version="0.48.4 r9939"
   sodipodi:docname="limit_90.svg"><defs
     id="defs10931" /><sodipodi:namedview
     pagecolor="#ffffff"
     bordercolor="#666666"
     borderopacity="1"
     objecttolerance="10"
     gridtolerance="10"
     guidetolerance="10"
     inkscape:pageopacity="0"
     inkscape:pageshadow="2"
     inkscape:window-width="732"
     inkscape:window-height="860"
     id="namedview10929"
     showgrid="false"
     inkscape:zoom="4.4528302"
     inkscape:cx="26.5"
     inkscape:cy="26.5"
     inkscape:window-x="67"
     inkscape:window-y="24"
     inkscape:window-maximized="0"
     inkscape:current-layer="g3084" /><metadata
     id="metadata3146"><rdf:RDF><cc:Work
         rdf:about=""><dc:format>image/svg+xml</dc:format><dc:type
           rdf:resource="http://purl.org/dc/dcmitype/StillImage" /><dc:title /></cc:Work></rdf:RDF></metadata><g
     id="g3084"
     transform="translate(2.5,2.5)"><g
       id="g3086"
       stroke="#F00"
       stroke-dasharray="none"
       stroke-miterlimit="4"
       stroke-width="5"
       fill="#F00"
       style="fill:#ee1c21;fill-opacity:1;stroke:#ee1c21;stroke-opacity:1"><path
         id="path3088"
         d="M24,48c-13.233,0-24-10.767-24-24s10.767-24,24-24,24,10.767,24,24-10.767,24-24,24zm0-46c-12.131,0-22,9.869-22,22s9.869,22,22,22,22-9.869,22-22-9.869-22-22-22z"
         stroke="#F00"
         stroke-dasharray="none"
         stroke-miterlimit="4"
         stroke-width="5"
         fill="#F00"
         style="fill:#ee1c21;fill-opacity:1;stroke:#ee1c21;stroke-opacity:1" /></g><g
       id="text4041-0-61"
       style="letter-spacing:0px;word-spacing:0px;"
       font-weight="normal"
       transform="scale(0.91922301,1.0878753)"
       font-size="31.91279984px"
       font-style="normal"
       font-family="Sans"
       line-height="125%"
       fill="#000"><path
         id="path4474"
         style="text-align:start;"
         d="m9.6931,17.133c-0.0000016-1.8509,0.69144-3.404,2.0743-4.6593,1.4042-1.2552,3.1381-1.8828,5.2018-1.8829,2.0637,0.000022,3.787,0.65955,5.1699,1.9786,1.4041,1.3191,2.1062,2.936,2.1062,4.8507-0.000016,2.9573-0.75528,5.8401-2.2658,8.6484-1.5106,2.7871-3.4998,4.9997-5.9677,6.6379l-1.722-2.841c2.5105-1.936,4.255-4.1274,5.2337-6.574-0.78719,0.23404-1.6382,0.35105-2.553,0.35104-1.9786,0.000009-3.6913-0.63825-5.138-1.9148-1.4254-1.2765-2.1382-2.8083-2.1382-4.5954m3.3828,0.06383c-0.000005,0.82975,0.38295,1.5531,1.1489,2.1701,0.7659,0.59572,1.6807,0.89357,2.7445,0.89356,1.2127,0.02129,2.1488-0.24465,2.8083-0.79782,0.65952-0.55314,0.99992-1.3084,1.0212-2.2658-0.000013-0.87227-0.37233-1.6169-1.1169-2.2339-0.74464-0.61696-1.6488-0.92545-2.7126-0.92547-1.0425,0.000018-1.9573,0.31915-2.7445,0.95738-0.76591,0.617-1.1489,1.351-1.1489,2.202" /><path
         id="path4476"
         style="text-align:start;"
         d="m34.798,32.706c-2.5105,0-4.4465-0.94674-5.8081-2.8402-1.3403-1.9148-2.0105-4.6593-2.0105-8.2335-0.000002-3.4891,0.67017-6.2017,2.0105-8.1378,1.3616-1.936,3.2976-2.904,5.8081-2.9041,2.553,0.000022,4.4891,0.96804,5.8081,2.9041,1.3403,1.9361,2.0105,4.6486,2.0105,8.1378-0.000017,3.5742-0.67018,6.3187-2.0105,8.2335-1.3191,1.8935-3.2551,2.8402-5.8081,2.8402m0-18.733c-1.4893,0.000018-2.5743,0.71274-3.2551,2.1382-0.68081,1.4042-1.0319,3.2232-1.0531,5.4571-0.000005,2.5105,0.32976,4.4146,0.9893,5.7124,0.6808,1.2978,1.7871,1.936,3.3189,1.9148,1.6169-0.04255,2.7339-0.71272,3.3508-2.0105,0.61697-1.2978,0.94673-3.17,0.9893-5.6167-0.04256-2.3828-0.40424-4.2231-1.085-5.5209-0.65954-1.2978-1.7446-1.9892-3.2551-2.0743" /></g></g></svg>