<?xml version="1.0" encoding="UTF-8" standalone="no"?>
<svg
   xmlns:dc="http://purl.org/dc/elements/1.1/"
   xmlns:cc="http://creativecommons.org/ns#"
   xmlns:rdf="http://www.w3.org/1999/02/22-rdf-syntax-ns#"
   xmlns:svg="http://www.w3.org/2000/svg"
   xmlns="http://www.w3.org/2000/svg"
   xmlns:sodipodi="http://sodipodi.sourceforge.net/DTD/sodipodi-0.dtd"
   xmlns:inkscape="http://www.inkscape.org/namespaces/inkscape"
   id="svg3081"
   version="1.1"
   xml:space="preserve"
   height="53"
   width="53"
   enable-background="new 0 0 48 48"
   viewBox="0 0 53 53"
   inkscape:version="0.48.4 r9939"
   sodipodi:docname="limit_10.svg"><defs
     id="defs4868" /><sodipodi:namedview
     pagecolor="#ffffff"
     bordercolor="#666666"
     borderopacity="1"
     objecttolerance="10"
     gridtolerance="10"
     guidetolerance="10"
     inkscape:pageopacity="0"
     inkscape:pageshadow="2"
     inkscape:window-width="1853"
     inkscape:window-height="1056"
     id="namedview4866"
     showgrid="false"
     inkscape:zoom="4.4528302"
     inkscape:cx="-12.800847"
     inkscape:cy="26.5"
     inkscape:window-x="1987"
     inkscape:window-y="24"
     inkscape:window-maximized="1"
     inkscape:current-layer="g3084" /><metadata
     id="metadata3146"><rdf:RDF><cc:Work
         rdf:about=""><dc:format>image/svg+xml</dc:format><dc:type
           rdf:resource="http://purl.org/dc/dcmitype/StillImage" /><dc:title /></cc:Work></rdf:RDF></metadata><g
     id="g3084"
     transform="translate(2.5,2.5)"><g
       id="g3086"
       stroke="#F00"
       stroke-dasharray="none"
       stroke-miterlimit="4"
       stroke-width="5"
       fill="#F00"
       style="fill:#ee1c21;fill-opacity:1;stroke:#ee1c21;stroke-opacity:1"><path
         id="path3088"
         d="M24,48c-13.233,0-24-10.767-24-24s10.767-24,24-24,24,10.767,24,24-10.767,24-24,24zm0-46c-12.131,0-22,9.869-22,22s9.869,22,22,22,22-9.869,22-22-9.869-22-22-22z"
         stroke="#F00"
         stroke-dasharray="none"
         stroke-miterlimit="4"
         stroke-width="5"
         fill="#F00"
         style="fill:#ee1c21;fill-opacity:1;stroke:#ee1c21;stroke-opacity:1" /></g><g
       id="text3237"
       style="writing-mode:lr-tb;letter-spacing:0px;text-anchor:middle;word-spacing:0px;text-align:center;"
       font-weight="normal"
       transform="scale(0.9750757,1.0255614)"
       line-height="125%"
       font-stretch="normal"
       font-size="36.81093597px"
       font-variant="normal"
       font-style="normal"
       font-family="Sans"
       fill="#000"><path
         id="path4018"
         d="m16.924,35.436-3.9388,0,0-19.804-2.2823,0,0-3.1657c1.4479-0.0736,2.5031-0.63803,3.1657-1.6933h3.0553v24.663" /><path
         id="path4020"
         d="m29.972,35.877c-2.8958-0.000001-5.129-1.0921-6.6996-3.2762-1.5461-2.2087-2.3191-5.3744-2.3191-9.4972-0.000001-4.0246,0.77303-7.1536,2.3191-9.3868,1.5706-2.2332,3.8038-3.3498,6.6996-3.3498,2.9449,0.000025,5.1781,1.1166,6.6996,3.3498,1.546,2.2332,2.3191,5.3621,2.3191,9.3868-0.000019,4.1228-0.77305,7.2886-2.3191,9.4972-1.5215,2.1841-3.7547,3.2762-6.6996,3.2762m0-21.608c-1.7179,0.000022-2.9694,0.82213-3.7547,2.4663-0.78531,1.6197-1.1902,3.7179-1.2148,6.2947-0.000005,2.8958,0.38037,5.0922,1.1411,6.5892,0.78529,1.497,2.0614,2.2332,3.8283,2.2087,1.8651-0.04908,3.1535-0.82211,3.8651-2.3191,0.71166-1.497,1.092-3.6565,1.1411-6.4787-0.0491-2.7485-0.46629-4.8713-1.2516-6.3683-0.76077-1.497-2.0123-2.2945-3.7547-2.3927" /></g></g></svg>