<?xml version="1.0" encoding="UTF-8" standalone="no"?>
<svg
   xmlns:dc="http://purl.org/dc/elements/1.1/"
   xmlns:cc="http://creativecommons.org/ns#"
   xmlns:rdf="http://www.w3.org/1999/02/22-rdf-syntax-ns#"
   xmlns:svg="http://www.w3.org/2000/svg"
   xmlns="http://www.w3.org/2000/svg"
   xmlns:sodipodi="http://sodipodi.sourceforge.net/DTD/sodipodi-0.dtd"
   xmlns:inkscape="http://www.inkscape.org/namespaces/inkscape"
   enable-background="new 0 0 48 48"
   height="53"
   version="1.1"
   viewBox="0 0 53 53"
   width="53"
   xml:space="preserve"
   id="svg3081"
   inkscape:version="0.48.4 r9939"
   sodipodi:docname="limit_lsz.svg"><metadata
     id="metadata3146"><rdf:RDF><cc:Work
         rdf:about=""><dc:format>image/svg+xml</dc:format><dc:type
           rdf:resource="http://purl.org/dc/dcmitype/StillImage" /><dc:title></dc:title></cc:Work></rdf:RDF></metadata><defs
     id="defs3144" /><sodipodi:namedview
     pagecolor="#ffffff"
     bordercolor="#666666"
     borderopacity="1"
     objecttolerance="10"
     gridtolerance="10"
     guidetolerance="10"
     inkscape:pageopacity="0"
     inkscape:pageshadow="2"
     inkscape:window-width="1853"
     inkscape:window-height="1056"
     id="namedview3142"
     showgrid="false"
     showguides="true"
     inkscape:guide-bbox="true"
     fit-margin-top="0"
     fit-margin-left="0"
     fit-margin-right="0"
     fit-margin-bottom="0"
     inkscape:zoom="9.8333333"
     inkscape:cx="8.7033898"
     inkscape:cy="29.205903"
     inkscape:window-x="67"
     inkscape:window-y="24"
     inkscape:window-maximized="1"
     inkscape:current-layer="g3084" /><g
     id="g3084"
     transform="translate(2.5,2.5)"><g
       id="g3086"
       style="fill:#000000;fill-opacity:1;stroke:#000000;stroke-width:0;stroke-miterlimit:3.5999999;stroke-opacity:1;stroke-dasharray:none"
       transform="matrix(1.0995763,0,0,1.101695,-2.440678,-2.440678)"><path
         inkscape:connector-curvature="0"
         id="path3088"
         d="M 24,48 C 10.767,48 0,37.233 0,24 0,10.767 10.767,0 24,0 37.233,0 48,10.767 48,24 48,37.233 37.233,48 24,48 z M 24,2 C 11.869,2 2,11.869 2,24 2,36.131 11.869,46 24,46 36.131,46 46,36.131 46,24 46,11.869 36.131,2 24,2 z"
         style="fill:#000000;fill-opacity:1;stroke:#000000;stroke-width:0;stroke-miterlimit:3.5999999;stroke-opacity:1;stroke-dasharray:none" /></g><path
       style="fill:none;stroke:#000000;stroke-width:10.305;stroke-linecap:butt;stroke-linejoin:miter;stroke-opacity:1;stroke-miterlimit:4;stroke-dasharray:none"
       d="M 5.374092,41.914044 C 41.286925,5.7978208 41.286925,5.7978208 41.286925,5.7978208"
       id="path12530"
       inkscape:connector-curvature="0" /></g></svg>