<?xml version="1.0" encoding="UTF-8" standalone="no"?>
<svg
   xmlns:dc="http://purl.org/dc/elements/1.1/"
   xmlns:cc="http://creativecommons.org/ns#"
   xmlns:rdf="http://www.w3.org/1999/02/22-rdf-syntax-ns#"
   xmlns:svg="http://www.w3.org/2000/svg"
   xmlns="http://www.w3.org/2000/svg"
   xmlns:sodipodi="http://sodipodi.sourceforge.net/DTD/sodipodi-0.dtd"
   xmlns:inkscape="http://www.inkscape.org/namespaces/inkscape"
   id="svg3081"
   version="1.1"
   xml:space="preserve"
   height="53"
   width="53"
   enable-background="new 0 0 48 48"
   viewBox="0 0 53 53"
   inkscape:version="0.48.4 r9939"
   sodipodi:docname="limit_100.svg"><defs
     id="defs5418" /><sodipodi:namedview
     pagecolor="#ffffff"
     bordercolor="#666666"
     borderopacity="1"
     objecttolerance="10"
     gridtolerance="10"
     guidetolerance="10"
     inkscape:pageopacity="0"
     inkscape:pageshadow="2"
     inkscape:window-width="1853"
     inkscape:window-height="1056"
     id="namedview5416"
     showgrid="false"
     inkscape:zoom="4.4528302"
     inkscape:cx="-12.800847"
     inkscape:cy="26.5"
     inkscape:window-x="67"
     inkscape:window-y="24"
     inkscape:window-maximized="1"
     inkscape:current-layer="g3084" /><metadata
     id="metadata3146"><rdf:RDF><cc:Work
         rdf:about=""><dc:format>image/svg+xml</dc:format><dc:type
           rdf:resource="http://purl.org/dc/dcmitype/StillImage" /><dc:title /></cc:Work></rdf:RDF></metadata><g
     id="g3084"
     transform="translate(2.5,2.5)"><g
       id="g3086"
       stroke="#F00"
       stroke-dasharray="none"
       stroke-miterlimit="4"
       stroke-width="5"
       fill="#F00"
       style="fill:#ee1c21;fill-opacity:1;stroke:#ee1c21;stroke-opacity:1"><path
         id="path3088"
         d="M24,48c-13.233,0-24-10.767-24-24s10.767-24,24-24,24,10.767,24,24-10.767,24-24,24zm0-46c-12.131,0-22,9.869-22,22s9.869,22,22,22,22-9.869,22-22-9.869-22-22-22z"
         stroke="#F00"
         stroke-dasharray="none"
         stroke-miterlimit="4"
         stroke-width="5"
         fill="#F00"
         style="fill:#ee1c21;fill-opacity:1;stroke:#ee1c21;stroke-opacity:1" /></g><g
       id="text4041-0-12"
       style="letter-spacing:0px;word-spacing:0px;"
       font-weight="normal"
       transform="scale(0.91922301,1.0878753)"
       font-size="31.91279984px"
       font-style="normal"
       font-family="Sans"
       line-height="125%"
       fill="#000"><path
         id="path4554"
         style="text-align:start;"
         d="m13.337,32.697-2.9998,0,0-17.584-1.819,0,0-2.4254c1.1063-0.02126,1.968-0.47867,2.5849-1.3722h2.2339v21.382" /><path
         id="path4556"
         style="text-align:start;"
         d="m22.732,33.08c-2.1914,0-3.7976-0.91483-4.8188-2.7445-1.0212-1.8509-1.5318-4.6273-1.5318-8.3292-0.000001-3.6593,0.5106-6.4145,1.5318-8.2654s2.6275-2.7764,4.8188-2.7764c2.1913,0.000022,3.7976,0.92549,4.8188,2.7764,1.0212,1.851,1.5318,4.6061,1.5318,8.2654-0.000013,3.7019-0.51062,6.4783-1.5318,8.3292-1.0212,1.8297-2.6275,2.7445-4.8188,2.7445m0-2.9998c1.1701,0.02128,2.0105-0.62762,2.5211-1.9467s0.7659-3.3827,0.76591-6.1911c-0.000011-2.7658-0.25531-4.7869-0.76591-6.0634-0.51061-1.2765-1.351-1.9147-2.5211-1.9148-1.1701,0.000019-2.0105,0.63827-2.5211,1.9148-0.51061,1.2765-0.76591,3.2977-0.76591,6.0634-0.000004,2.8083,0.2553,4.872,0.76591,6.1911,0.5106,1.3191,1.351,1.968,2.5211,1.9467" /><path
         id="path4558"
         style="text-align:start;"
         d="m37.567,33.08c-2.1914,0-3.7976-0.91483-4.8188-2.7445-1.0212-1.8509-1.5318-4.6273-1.5318-8.3292-0.000001-3.6593,0.5106-6.4145,1.5318-8.2654s2.6275-2.7764,4.8188-2.7764c2.1913,0.000022,3.7976,0.92549,4.8188,2.7764,1.0212,1.851,1.5318,4.6061,1.5318,8.2654-0.000013,3.7019-0.51062,6.4783-1.5318,8.3292-1.0212,1.8297-2.6275,2.7445-4.8188,2.7445m0-2.9998c1.1701,0.02128,2.0105-0.62762,2.5211-1.9467s0.7659-3.3827,0.76591-6.1911c-0.00001-2.7658-0.25531-4.7869-0.76591-6.0634-0.51061-1.2765-1.351-1.9147-2.5211-1.9148-1.1701,0.000019-2.0105,0.63827-2.5211,1.9148-0.51061,1.2765-0.76591,3.2977-0.76591,6.0634-0.000004,2.8083,0.2553,4.872,0.76591,6.1911,0.5106,1.3191,1.351,1.968,2.5211,1.9467" /></g></g></svg>