<?xml version="1.0" encoding="UTF-8" standalone="no"?>
<svg
   xmlns:dc="http://purl.org/dc/elements/1.1/"
   xmlns:cc="http://creativecommons.org/ns#"
   xmlns:rdf="http://www.w3.org/1999/02/22-rdf-syntax-ns#"
   xmlns:svg="http://www.w3.org/2000/svg"
   xmlns="http://www.w3.org/2000/svg"
   xmlns:sodipodi="http://sodipodi.sourceforge.net/DTD/sodipodi-0.dtd"
   xmlns:inkscape="http://www.inkscape.org/namespaces/inkscape"
   id="svg3081"
   version="1.1"
   xml:space="preserve"
   height="53"
   width="53"
   enable-background="new 0 0 48 48"
   viewBox="0 0 53 53"
   inkscape:version="0.48.4 r9939"
   sodipodi:docname="limit_60.svg"><defs
     id="defs8908" /><sodipodi:namedview
     pagecolor="#ffffff"
     bordercolor="#666666"
     borderopacity="1"
     objecttolerance="10"
     gridtolerance="10"
     guidetolerance="10"
     inkscape:pageopacity="0"
     inkscape:pageshadow="2"
     inkscape:window-width="732"
     inkscape:window-height="843"
     id="namedview8906"
     showgrid="false"
     inkscape:zoom="4.4528302"
     inkscape:cx="26.5"
     inkscape:cy="26.5"
     inkscape:window-x="67"
     inkscape:window-y="24"
     inkscape:window-maximized="0"
     inkscape:current-layer="g3084" /><metadata
     id="metadata3146"><rdf:RDF><cc:Work
         rdf:about=""><dc:format>image/svg+xml</dc:format><dc:type
           rdf:resource="http://purl.org/dc/dcmitype/StillImage" /><dc:title /></cc:Work></rdf:RDF></metadata><g
     id="g3084"
     transform="translate(2.5,2.5)"><g
       id="g3086"
       stroke="#F00"
       stroke-dasharray="none"
       stroke-miterlimit="4"
       stroke-width="5"
       fill="#F00"
       style="fill:#ee1c21;fill-opacity:1;stroke:#ee1c21;stroke-opacity:1"><path
         id="path3088"
         d="M24,48c-13.233,0-24-10.767-24-24s10.767-24,24-24,24,10.767,24,24-10.767,24-24,24zm0-46c-12.131,0-22,9.869-22,22s9.869,22,22,22,22-9.869,22-22-9.869-22-22-22z"
         stroke="#F00"
         stroke-dasharray="none"
         stroke-miterlimit="4"
         stroke-width="5"
         fill="#F00"
         style="fill:#ee1c21;fill-opacity:1;stroke:#ee1c21;stroke-opacity:1" /></g><g
       id="text4041-0-3"
       style="letter-spacing:0px;word-spacing:0px;"
       font-weight="normal"
       transform="scale(0.91922301,1.0878753)"
       font-size="31.91279984px"
       font-style="normal"
       font-family="Sans"
       line-height="125%"
       fill="#000"><path
         id="path4330"
         style="text-align:start;"
         d="m24.135,25.603c-0.000016,1.8509-0.7021,3.404-2.1062,4.6593-1.3829,1.2552-3.1062,1.8829-5.1699,1.8829-2.0637-0.000001-3.7976-0.65953-5.2018-1.9786-1.3829-1.3191-2.0743-2.936-2.0743-4.8507-0.0000016-2.9572,0.75527-5.8294,2.2658-8.6165,1.5105-2.8083,3.4998-5.0316,5.9677-6.6698l1.7233,2.8402c-2.5105,1.9361-4.255,4.1274-5.2337,6.574,0.78718-0.23401,1.6382-0.35103,2.553-0.35104,1.9786,0.000013,3.6806,0.63827,5.106,1.9148,1.4467,1.2765,2.1701,2.8083,2.1701,4.5954m-3.3828-0.06383c-0.000013-0.82973-0.38297-1.5424-1.1489-2.1382-0.76592-0.61697-1.6808-0.92546-2.7445-0.92547-1.2127-0.02127-2.1488,0.24467-2.8083,0.79782-0.65954,0.55316-0.99994,1.3084-1.0212,2.2658-0.000005,0.87229,0.37231,1.6169,1.1169,2.2339,0.74463,0.61698,1.6488,0.92547,2.7126,0.92547,1.0425,0.000003,1.9467-0.30849,2.7126-0.92547,0.78717-0.63825,1.1808-1.3829,1.1808-2.2339" /><path
         id="path4332"
         style="text-align:start;"
         d="m34.688,32.145c-2.5105-0.000001-4.4465-0.94675-5.8081-2.8402-1.3403-1.9148-2.0105-4.6593-2.0105-8.2335-0.000001-3.4891,0.67017-6.2017,2.0105-8.1378,1.3616-1.936,3.2976-2.904,5.8081-2.9041,2.553,0.000022,4.4891,0.96804,5.8081,2.9041,1.3403,1.9361,2.0105,4.6486,2.0105,8.1378-0.000017,3.5742-0.67018,6.3187-2.0105,8.2335-1.3191,1.8935-3.2551,2.8402-5.8081,2.8402m0-18.733c-1.4893,0.000018-2.5743,0.71274-3.2551,2.1382-0.68081,1.4042-1.0319,3.2232-1.0531,5.4571-0.000004,2.5105,0.32976,4.4146,0.9893,5.7124,0.6808,1.2978,1.7871,1.936,3.3189,1.9148,1.6169-0.04255,2.7339-0.71272,3.3508-2.0105,0.61697-1.2978,0.94673-3.17,0.9893-5.6167-0.04256-2.3828-0.40424-4.2231-1.085-5.5209-0.65954-1.2978-1.7446-1.9892-3.2551-2.0743" /></g></g></svg>