<?xml version="1.0" ?><!DOCTYPE svg  PUBLIC '-//W3C//DTD SVG 1.1//EN'  'http://www.w3.org/Graphics/SVG/1.1/DTD/svg11.dtd'><svg enable-background="new 0 0 512 512" height="512px" id="Layer_1" version="1.1" viewBox="0 0 512 512" width="512px" xml:space="preserve" xmlns="http://www.w3.org/2000/svg" xmlns:xlink="http://www.w3.org/1999/xlink"><path d="M320.216,394.298c-1.531,0-3.054-0.451-4.372-1.366c-2.857-1.979-4.027-5.624-2.873-8.881l28.2-79.453  l-303.552,20.82c-2.31,0.104-4.503-0.706-6.071-2.354c-1.575-1.636-2.34-3.9-2.085-6.166l14.932-132.94  c0.229-2.04,1.264-3.907,2.876-5.174c1.613-1.275,3.668-1.83,5.704-1.59l296.924,37.027l-18.238-87.27  c-0.683-3.292,0.854-6.659,3.81-8.288c2.94-1.635,6.606-1.147,9.037,1.185l135.726,130.619c1.56,1.507,2.416,3.607,2.348,5.782  c-0.067,2.175-1.058,4.218-2.723,5.614L325.165,392.481C323.74,393.682,321.979,394.298,320.216,394.298z M352.315,288.458  c2.4,0,4.666,1.109,6.119,3.029c1.568,2.071,1.988,4.771,1.126,7.216l-22.62,63.733l126.501-106.809L351.79,148.176l15.345,73.424  c0.511,2.423-0.194,4.95-1.874,6.773c-1.673,1.83-4.141,2.707-6.594,2.415L58.791,193.393L45.753,309.458l306.037-20.985  C351.971,288.458,352.15,288.458,352.315,288.458z" fill="#231F20"/></svg>