<?xml version="1.0" encoding="UTF-8" standalone="no"?>
<!-- Created with Inkscape (http://www.inkscape.org/) -->

<svg
   xmlns:dc="http://purl.org/dc/elements/1.1/"
   xmlns:cc="http://creativecommons.org/ns#"
   xmlns:rdf="http://www.w3.org/1999/02/22-rdf-syntax-ns#"
   xmlns:svg="http://www.w3.org/2000/svg"
   xmlns="http://www.w3.org/2000/svg"
   version="1.1"
   width="30"
   height="30"
   id="svg2">
  <defs
     id="defs4">
    <marker
       refX="0"
       refY="0"
       orient="auto"
       id="Arrow2Lend"
       style="overflow:visible">
      <path
         d="M 8.7185878,4.0337352 -2.2072895,0.01601326 8.7185884,-4.0017078 c -1.7454984,2.3720609 -1.7354408,5.6174519 -6e-7,8.035443 z"
         transform="matrix(-1.1,0,0,-1.1,-1.1,0)"
         id="path3800"
         style="fill-rule:evenodd;stroke-width:0.625;stroke-linejoin:round" />
    </marker>
    <linearGradient
       id="linearGradient4543">
      <stop
         id="stop4545"
         style="stop-color:#000000;stop-opacity:1"
         offset="0" />
    </linearGradient>
    <linearGradient
       id="linearGradient4537">
      <stop
         id="stop4539"
         style="stop-color:#000000;stop-opacity:1"
         offset="0" />
    </linearGradient>
    <clipPath
       id="clipPath3955">
      <path
         d="m 13.068049,11.8002 c 0,0 -1.667464,0.6518 -1.819979,1.4023 -0.301588,1.4841 -0.66935,2.5352 -0.829512,3.2577 -0.125326,0.5653 -0.5978446,0.6746 -0.948584,0.645 -0.5272373,-0.044 -0.7977494,-0.4739 -0.7201057,-0.9855 0.1163416,-0.7664 0.2933536,-1.9908 0.8572365,-3.9018 0.5844192,-1.9806 2.2403482,-2.7226 3.8189732,-3.3118 0.717449,-0.2677 1.542002,-0.1259 2.297351,0 2.202311,0.3674 1.59449,1.8016 3.030008,4.3241 0.322943,0.5675 1.490812,1.0447 2.267919,1.3462 0.777107,0.3016 0.915712,0.8416 0.754486,1.2146 -0.161227,0.3729 -0.358195,0.8682 -1.400933,0.553 -1.042739,-0.3152 -2.931246,-1.4409 -2.931246,-1.4409 l -1.093683,-0.9846 -0.656386,2.7151 3.773416,8.351 c 0.218005,0.4825 0.16921,0.9151 -0.317955,1.2612 -0.487165,0.3461 -1.202297,0.2182 -1.517382,-0.3682 l -3.459702,-6.4394 -1.402279,3.1327 c 0,0 -2.669333,4.7828 -4.177002,3.6749 -1.5076686,-1.1078 1.681989,-3.17 2.357023,-4.8982 0.561887,-1.4384 1.402279,-4.4156 1.402279,-4.4156 z"
         id="path3957"
         style="fill:none;stroke:#000000;stroke-width:1px;stroke-linecap:round;stroke-linejoin:round;stroke-opacity:1" />
    </clipPath>
  </defs>
  <metadata
     id="metadata7">
    <rdf:RDF>
      <cc:Work
         rdf:about="">
        <dc:format>image/svg+xml</dc:format>
        <dc:type
           rdf:resource="http://purl.org/dc/dcmitype/StillImage" />
        <dc:title></dc:title>
      </cc:Work>
    </rdf:RDF>
  </metadata>
  <g
     transform="translate(0,-1022.3622)"
     id="layer1">
    <g
       transform="translate(0,-3.1084764e-5)"
       id="g4973">
      <path
         d="m 15.630786,1032.0583 c 0,0 1.694666,-0.7871 2.16318,-1.5375 0.468521,-0.7504 0.431721,-2.6185 0.431721,-2.6185 0.767264,1.4417 3.167592,4.8658 3.167592,4.8658 0,0 -4.130271,-0.6533 -5.762493,-0.7098 z"
         id="path4767"
         style="fill:#000000;fill-opacity:1;stroke:#000000;stroke-width:0.44507566;stroke-linecap:square;stroke-linejoin:round;stroke-miterlimit:4;stroke-opacity:1" />
      <path
         d="m 9.1828718,1032.2456 c 0.731401,-0.7314 1.6023112,-1.3233 2.5693932,-1.7324 0.967081,-0.409 2.030332,-0.6352 3.146412,-0.6352 1.116081,0 2.179331,0.2262 3.146412,0.6352 m 4.301725,4.3018 c 0.409041,0.967 0.635232,2.0303 0.635232,3.1464 0,1.116 -0.226191,2.1793 -0.635232,3.1464 -0.40904,0.9671 -1.000931,1.838 -1.732332,2.5694 m -5.715805,2.3675 c -1.11608,0 -2.179331,-0.2262 -3.146412,-0.6352 -0.967082,-0.409 -1.8379922,-1.0009 -2.5693932,-1.7323 -0.7314011,-0.7314 -1.3232921,-1.6023 -1.7323329,-2.5694 -0.4090407,-0.9671 -0.6352312,-2.0304 -0.6352312,-3.1464"
         id="path4956"
         style="fill:none;stroke:#000000;stroke-width:2;stroke-linecap:square;stroke-linejoin:round;stroke-miterlimit:4;stroke-opacity:1" />
      <path
         d="m 19.835282,1041.124 c 0,0 0.161595,1.8616 0.707121,2.5579 0.545161,0.6968 2.313995,1.2994 2.313995,1.2994 -1.616893,0.2297 -5.654604,1.3171 -5.654604,1.3171 0,0 2.023434,-3.6594 2.633488,-5.1744 z"
         id="path4959"
         style="fill:#000000;fill-opacity:1;stroke:#000000;stroke-width:0.44507566;stroke-linecap:square;stroke-linejoin:round;stroke-miterlimit:4;stroke-opacity:1" />
      <path
         d="m 9.1905946,1039.1049 c 0,0 -1.4947763,-1.1212 -2.377436,-1.1791 -0.8828218,-0.059 -2.5115389,0.8574 -2.5115389,0.8574 0.9072799,-1.3579 2.7901185,-5.0915 2.7901185,-5.0915 0,0 1.3769879,3.9483 2.0988564,5.4132 z"
         id="path4961"
         style="fill:#000000;fill-opacity:1;stroke:#000000;stroke-width:0.44507566;stroke-linecap:square;stroke-linejoin:round;stroke-miterlimit:4;stroke-opacity:1" />
    </g>
  </g>
</svg>
