<?xml version="1.0" encoding="UTF-8" standalone="no"?>
<!-- Created with Inkscape (http://www.inkscape.org/) -->

<svg
   xmlns:dc="http://purl.org/dc/elements/1.1/"
   xmlns:cc="http://creativecommons.org/ns#"
   xmlns:rdf="http://www.w3.org/1999/02/22-rdf-syntax-ns#"
   xmlns:svg="http://www.w3.org/2000/svg"
   xmlns="http://www.w3.org/2000/svg"
   version="1.1"
   width="30"
   height="30"
   id="svg2">
  <defs
     id="defs4">
    <marker
       refX="0"
       refY="0"
       orient="auto"
       id="Arrow2Lend"
       style="overflow:visible">
      <path
         d="M 8.7185878,4.0337352 -2.2072895,0.01601326 8.7185884,-4.0017078 c -1.7454984,2.3720609 -1.7354408,5.6174519 -6e-7,8.035443 z"
         transform="matrix(-1.1,0,0,-1.1,-1.1,0)"
         id="path3800"
         style="fill-rule:evenodd;stroke-width:0.625;stroke-linejoin:round" />
    </marker>
    <linearGradient
       id="linearGradient4543">
      <stop
         id="stop4545"
         style="stop-color:#000000;stop-opacity:1"
         offset="0" />
    </linearGradient>
    <linearGradient
       id="linearGradient4537">
      <stop
         id="stop4539"
         style="stop-color:#000000;stop-opacity:1"
         offset="0" />
    </linearGradient>
    <clipPath
       id="clipPath3955">
      <path
         d="m 13.068049,11.8002 c 0,0 -1.667464,0.6518 -1.819979,1.4023 -0.301588,1.4841 -0.66935,2.5352 -0.829512,3.2577 -0.125326,0.5653 -0.5978446,0.6746 -0.948584,0.645 -0.5272373,-0.044 -0.7977494,-0.4739 -0.7201057,-0.9855 0.1163416,-0.7664 0.2933536,-1.9908 0.8572365,-3.9018 0.5844192,-1.9806 2.2403482,-2.7226 3.8189732,-3.3118 0.717449,-0.2677 1.542002,-0.1259 2.297351,0 2.202311,0.3674 1.59449,1.8016 3.030008,4.3241 0.322943,0.5675 1.490812,1.0447 2.267919,1.3462 0.777107,0.3016 0.915712,0.8416 0.754486,1.2146 -0.161227,0.3729 -0.358195,0.8682 -1.400933,0.553 -1.042739,-0.3152 -2.931246,-1.4409 -2.931246,-1.4409 l -1.093683,-0.9846 -0.656386,2.7151 3.773416,8.351 c 0.218005,0.4825 0.16921,0.9151 -0.317955,1.2612 -0.487165,0.3461 -1.202297,0.2182 -1.517382,-0.3682 l -3.459702,-6.4394 -1.402279,3.1327 c 0,0 -2.669333,4.7828 -4.177002,3.6749 -1.5076686,-1.1078 1.681989,-3.17 2.357023,-4.8982 0.561887,-1.4384 1.402279,-4.4156 1.402279,-4.4156 z"
         id="path3957"
         style="fill:none;stroke:#000000;stroke-width:1px;stroke-linecap:round;stroke-linejoin:round;stroke-opacity:1" />
    </clipPath>
  </defs>
  <metadata
     id="metadata7">
    <rdf:RDF>
      <cc:Work
         rdf:about="">
        <dc:format>image/svg+xml</dc:format>
        <dc:type
           rdf:resource="http://purl.org/dc/dcmitype/StillImage" />
        <dc:title></dc:title>
      </cc:Work>
    </rdf:RDF>
  </metadata>
  <g
     transform="translate(0,-1022.3622)"
     id="layer1">
    <g
       transform="matrix(0.9,0,0,0.9,2.4,101.76567)"
       id="g5049">
      <path
         d="m 13.999831,1047.84 3.38e-4,-16.5766"
         id="path5006"
         style="fill:none;stroke:#000000;stroke-width:3.33333325;stroke-linecap:square;stroke-linejoin:round;stroke-miterlimit:4;stroke-opacity:1;stroke-dasharray:none" />
      <path
         d="m 4,1031.2639 20,0"
         id="path5047"
         style="fill:none;stroke:#000000;stroke-width:3.33333325;stroke-linecap:butt;stroke-linejoin:round;stroke-miterlimit:4;stroke-opacity:1;stroke-dasharray:none" />
    </g>
  </g>
</svg>
